<svg width="297" height="309" viewBox="0 0 297 309" fill="none" xmlns="http://www.w3.org/2000/svg">
<mask id="mask0_1_19681" style="mask-type:alpha" maskUnits="userSpaceOnUse" x="4" y="0" width="293" height="301">
<rect x="4.5" y="0.5" width="292" height="300" rx="16.5" fill="#FEDBEB" stroke="black"/>
</mask>
<g mask="url(#mask0_1_19681)">
<g opacity="0.03">
<path d="M13.7095 29.8348C13.7086 29.2755 13.8737 28.7284 14.1839 28.2629C14.4941 27.7974 14.9354 27.4344 15.452 27.2197C15.9687 27.005 16.5374 26.9483 17.0863 27.0569C17.6352 27.1655 18.1395 27.4344 18.5355 27.8296C18.9314 28.2247 19.2012 28.7284 19.3107 29.277C19.4202 29.8255 19.3645 30.3941 19.1506 30.911C18.9367 31.4278 18.5741 31.8696 18.109 32.1805C17.6438 32.4913 17.097 32.6572 16.5375 32.6572C16.1663 32.6578 15.7987 32.5853 15.4556 32.4437C15.1126 32.3021 14.8007 32.0943 14.5381 31.8322C14.2754 31.57 14.0671 31.2587 13.9249 30.9159C13.7827 30.5732 13.7095 30.2058 13.7095 29.8348V29.8348Z" fill="#020A4E"/>
<path d="M13.7095 39.5626C13.7095 39.0035 13.8754 38.4569 14.1861 37.992C14.4969 37.5271 14.9384 37.1648 15.4552 36.9508C15.9719 36.7368 16.5405 36.6808 17.0891 36.7899C17.6377 36.899 18.1416 37.1682 18.5371 37.5636C18.9326 37.959 19.2019 38.4627 19.311 39.0111C19.4201 39.5595 19.3641 40.1279 19.1501 40.6445C18.9361 41.161 18.5736 41.6026 18.1085 41.9132C17.6435 42.2238 17.0968 42.3896 16.5375 42.3896C16.1659 42.3903 15.7979 42.3175 15.4545 42.1757C15.1111 42.0338 14.7991 41.8256 14.5364 41.563C14.2737 41.3003 14.0655 40.9885 13.9236 40.6452C13.7817 40.3019 13.7089 39.934 13.7095 39.5626V39.5626Z" fill="#020A4E"/>
<path d="M4.07434 39.5626C4.07435 39.0033 4.24028 38.4565 4.55122 37.9915C4.86216 37.5265 5.30417 37.1642 5.82117 36.9503C6.33817 36.7365 6.90698 36.6808 7.45567 36.7902C8.00435 36.8997 8.50819 37.1694 8.9035 37.5652C9.29881 37.9611 9.56785 38.4652 9.67645 39.0139C9.78504 39.5626 9.72837 40.1312 9.51363 40.6477C9.29888 41.1642 8.93568 41.6054 8.47003 41.9154C8.00437 42.2255 7.45711 42.3906 6.8976 42.3896C6.52645 42.3896 6.15895 42.3165 5.81611 42.1744C5.47327 42.0322 5.16192 41.8239 4.89969 41.5613C4.63746 41.2988 4.4296 40.9871 4.28799 40.6441C4.14638 40.3012 4.07374 39.9336 4.07434 39.5626Z" fill="#020A4E"/>
<path d="M4.07434 49.2872C4.07435 48.7279 4.24028 48.1811 4.55122 47.7161C4.86216 47.2511 5.30417 46.8888 5.82117 46.6749C6.33817 46.4611 6.90698 46.4054 7.45567 46.5148C8.00435 46.6243 8.50819 46.894 8.9035 47.2898C9.29881 47.6857 9.56785 48.1898 9.67645 48.7385C9.78504 49.2872 9.72837 49.8558 9.51363 50.3723C9.29888 50.8888 8.93568 51.33 8.47003 51.6401C8.00437 51.9501 7.45711 52.1152 6.8976 52.1143C6.52645 52.1143 6.15895 52.0411 5.81611 51.899C5.47327 51.7568 5.16192 51.5485 4.89969 51.2859C4.63746 51.0234 4.4296 50.7117 4.28799 50.3687C4.14638 50.0258 4.07374 49.6583 4.07434 49.2872Z" fill="#020A4E"/>
<path d="M4.07434 59.0118C4.07435 58.4525 4.24028 57.9057 4.55122 57.4407C4.86216 56.9757 5.30417 56.6134 5.82117 56.3995C6.33817 56.1857 6.90698 56.13 7.45567 56.2394C8.00435 56.3489 8.50819 56.6186 8.9035 57.0145C9.29881 57.4103 9.56785 57.9144 9.67645 58.4631C9.78504 59.0118 9.72837 59.5804 9.51363 60.0969C9.29888 60.6134 8.93568 61.0546 8.47003 61.3647C8.00437 61.6747 7.45711 61.8398 6.8976 61.8389C6.52645 61.8389 6.15895 61.7657 5.81611 61.6236C5.47327 61.4814 5.16192 61.2732 4.89969 61.0106C4.63746 60.748 4.4296 60.4363 4.28799 60.0933C4.14638 59.7504 4.07374 59.3829 4.07434 59.0118Z" fill="#020A4E"/>
<path d="M4.07434 97.9093C4.07435 97.35 4.24028 96.8032 4.55122 96.3382C4.86216 95.8732 5.30417 95.5109 5.82117 95.297C6.33817 95.0832 6.90698 95.0275 7.45567 95.1369C8.00435 95.2464 8.50819 95.5161 8.9035 95.9119C9.29881 96.3077 9.56785 96.8119 9.67645 97.3606C9.78504 97.9093 9.72837 98.4779 9.51363 98.9943C9.29888 99.5108 8.93568 99.952 8.47003 100.262C8.00437 100.572 7.45711 100.737 6.8976 100.736C6.52645 100.736 6.15895 100.663 5.81611 100.521C5.47327 100.379 5.16192 100.171 4.89969 99.908C4.63746 99.6455 4.4296 99.3338 4.28799 98.9908C4.14638 98.6478 4.07374 98.2803 4.07434 97.9093Z" fill="#020A4E"/>
<path d="M4.07434 107.647C4.07435 107.087 4.24028 106.541 4.55122 106.076C4.86216 105.611 5.30417 105.248 5.82117 105.034C6.33817 104.82 6.90698 104.765 7.45567 104.874C8.00435 104.984 8.50819 105.253 8.9035 105.649C9.29881 106.045 9.56785 106.549 9.67645 107.098C9.78504 107.647 9.72837 108.215 9.51363 108.732C9.29888 109.248 8.93568 109.689 8.47003 109.999C8.00437 110.31 7.45711 110.475 6.8976 110.474C6.52645 110.474 6.15895 110.4 5.81611 110.258C5.47327 110.116 5.16192 109.908 4.89969 109.645C4.63746 109.383 4.4296 109.071 4.28799 108.728C4.14638 108.385 4.07374 108.018 4.07434 107.647Z" fill="#020A4E"/>
<path d="M4.07434 117.358C4.07435 116.798 4.24028 116.251 4.55122 115.786C4.86216 115.321 5.30417 114.959 5.82117 114.745C6.33817 114.531 6.90698 114.476 7.45567 114.585C8.00435 114.695 8.50819 114.964 8.9035 115.36C9.29881 115.756 9.56785 116.26 9.67645 116.809C9.78504 117.358 9.72837 117.926 9.51363 118.443C9.29888 118.959 8.93568 119.4 8.47003 119.71C8.00437 120.02 7.45711 120.185 6.8976 120.185C6.52645 120.185 6.15895 120.111 5.81611 119.969C5.47327 119.827 5.16192 119.619 4.89969 119.356C4.63746 119.094 4.4296 118.782 4.28799 118.439C4.14638 118.096 4.07374 117.729 4.07434 117.358Z" fill="#020A4E"/>
<path d="M42.6058 127.081C42.6058 126.522 42.7718 125.975 43.0825 125.511C43.3932 125.046 43.8349 124.683 44.3517 124.469C44.8684 124.255 45.4369 124.199 45.9855 124.308C46.534 124.418 47.0379 124.687 47.4334 125.082C47.8289 125.478 48.0983 125.981 48.2074 126.53C48.3165 127.078 48.2605 127.646 48.0465 128.163C47.8324 128.68 47.4699 129.121 47.0049 129.432C46.5398 129.742 45.9931 129.908 45.4338 129.908C45.0623 129.909 44.6942 129.836 44.3509 129.694C44.0075 129.552 43.6955 129.344 43.4328 129.082C43.17 128.819 42.9618 128.507 42.8199 128.164C42.678 127.82 42.6052 127.453 42.6058 127.081V127.081Z" fill="#020A4E"/>
<path d="M4.07434 127.081C4.07435 126.522 4.24028 125.975 4.55122 125.51C4.86216 125.045 5.30417 124.683 5.82117 124.469C6.33817 124.255 6.90698 124.199 7.45567 124.309C8.00435 124.418 8.50819 124.688 8.9035 125.084C9.29881 125.48 9.56785 125.984 9.67645 126.532C9.78504 127.081 9.72837 127.65 9.51363 128.166C9.29888 128.683 8.93568 129.124 8.47003 129.434C8.00437 129.744 7.45711 129.909 6.8976 129.908C6.52645 129.908 6.15895 129.835 5.81611 129.693C5.47327 129.551 5.16192 129.342 4.89969 129.08C4.63746 128.817 4.4296 128.506 4.28799 128.163C4.14638 127.82 4.07374 127.452 4.07434 127.081V127.081Z" fill="#020A4E"/>
<path d="M74.3255 133.979C75.8874 133.979 77.1534 135.244 77.1534 136.806C77.1534 138.367 75.8874 139.633 74.3255 139.633C72.7637 139.633 71.4976 138.367 71.4976 136.806C71.4976 135.244 72.7637 133.979 74.3255 133.979Z" fill="#020A4E"/>
<path d="M64.695 133.979C66.2569 133.979 67.5229 135.244 67.5229 136.806C67.5229 138.367 66.2569 139.633 64.695 139.633C63.1332 139.633 61.8671 138.367 61.8671 136.806C61.8671 135.244 63.1332 133.979 64.695 133.979Z" fill="#020A4E"/>
<path d="M35.7985 133.979C37.3603 133.979 38.6265 135.244 38.6265 136.806C38.6265 138.367 37.3603 139.633 35.7985 139.633C34.2367 139.633 32.9706 138.367 32.9706 136.806C32.9706 135.244 34.2367 133.979 35.7985 133.979Z" fill="#020A4E"/>
<path d="M26.168 133.979C27.7298 133.979 28.9959 135.244 28.9959 136.806C28.9959 138.367 27.7298 139.633 26.168 139.633C24.6061 139.633 23.3401 138.367 23.3401 136.806C23.3401 135.244 24.6061 133.979 26.168 133.979Z" fill="#020A4E"/>
<path d="M74.3255 143.703C75.8874 143.703 77.1534 144.969 77.1534 146.53C77.1534 148.092 75.8874 149.357 74.3255 149.357C72.7637 149.357 71.4976 148.092 71.4976 146.53C71.4976 144.969 72.7637 143.703 74.3255 143.703Z" fill="#020A4E"/>
<path d="M26.168 143.703C27.7298 143.703 28.9959 144.969 28.9959 146.53C28.9959 148.092 27.7298 149.357 26.168 149.357C24.6061 149.357 23.3401 148.092 23.3401 146.53C23.3401 144.969 24.6061 143.703 26.168 143.703Z" fill="#020A4E"/>
<path d="M71.4976 156.255C71.4976 155.696 71.6635 155.149 71.9742 154.684C72.2849 154.219 72.7266 153.857 73.2434 153.643C73.7601 153.429 74.3286 153.373 74.8772 153.482C75.4258 153.591 75.9297 153.861 76.3251 154.256C76.7206 154.651 76.99 155.155 77.0991 155.703C77.2082 156.252 77.1522 156.82 76.9382 157.337C76.7242 157.853 76.3617 158.295 75.8966 158.606C75.4316 158.916 74.8848 159.082 74.3255 159.082C73.5755 159.082 72.8563 158.784 72.3259 158.254C71.7956 157.724 71.4976 157.005 71.4976 156.255V156.255Z" fill="#020A4E"/>
<path d="M23.3401 156.255C23.3401 155.696 23.5059 155.149 23.8166 154.684C24.1274 154.219 24.5691 153.857 25.0858 153.643C25.6025 153.429 26.1712 153.373 26.7197 153.482C27.2683 153.591 27.7721 153.861 28.1676 154.256C28.5631 154.651 28.8324 155.155 28.9415 155.703C29.0506 156.252 28.9946 156.82 28.7806 157.337C28.5666 157.853 28.2041 158.295 27.739 158.606C27.274 158.916 26.7273 159.082 26.168 159.082C25.4179 159.082 24.6987 158.784 24.1684 158.254C23.638 157.724 23.3401 157.005 23.3401 156.255V156.255Z" fill="#020A4E"/>
<path d="M13.7095 156.255C13.7095 155.696 13.8754 155.149 14.1861 154.684C14.4969 154.219 14.9384 153.857 15.4552 153.643C15.9719 153.429 16.5405 153.373 17.0891 153.482C17.6377 153.591 18.1416 153.861 18.5371 154.256C18.9325 154.651 19.2019 155.155 19.311 155.703C19.4201 156.252 19.3641 156.82 19.1501 157.337C18.9361 157.853 18.5736 158.295 18.1085 158.606C17.6435 158.916 17.0968 159.082 16.5375 159.082C15.7874 159.082 15.0681 158.784 14.5377 158.254C14.0074 157.724 13.7095 157.005 13.7095 156.255V156.255Z" fill="#020A4E"/>
<path d="M81.1329 165.979C81.1329 165.42 81.2987 164.873 81.6095 164.408C81.9202 163.943 82.3619 163.581 82.8786 163.367C83.3954 163.153 83.964 163.097 84.5126 163.206C85.0611 163.315 85.565 163.584 85.9605 163.98C86.356 164.375 86.6252 164.879 86.7344 165.427C86.8435 165.976 86.7875 166.544 86.5735 167.06C86.3594 167.577 85.9969 168.019 85.5319 168.329C85.0668 168.64 84.5201 168.806 83.9608 168.806C83.2108 168.806 82.4915 168.508 81.9612 167.978C81.4309 167.447 81.1329 166.728 81.1329 165.979V165.979Z" fill="#020A4E"/>
<path d="M71.4976 165.979C71.4976 165.42 71.6635 164.873 71.9742 164.408C72.2849 163.943 72.7266 163.581 73.2434 163.367C73.7601 163.153 74.3286 163.097 74.8772 163.206C75.4258 163.315 75.9297 163.584 76.3251 163.98C76.7206 164.375 76.99 164.879 77.0991 165.427C77.2082 165.976 77.1522 166.544 76.9382 167.06C76.7242 167.577 76.3617 168.019 75.8966 168.329C75.4316 168.64 74.8848 168.806 74.3255 168.806C73.5755 168.806 72.8563 168.508 72.3259 167.978C71.7956 167.447 71.4976 166.728 71.4976 165.979Z" fill="#020A4E"/>
<path d="M32.9706 165.979C32.9706 165.42 33.1364 164.873 33.4472 164.408C33.7579 163.943 34.1996 163.581 34.7163 163.367C35.2331 163.153 35.8017 163.097 36.3503 163.206C36.8988 163.315 37.4027 163.584 37.7982 163.98C38.1937 164.375 38.4631 164.879 38.5722 165.427C38.6813 165.976 38.6253 166.544 38.4113 167.06C38.1972 167.577 37.8347 168.019 37.3697 168.329C36.9047 168.64 36.3578 168.806 35.7985 168.806C35.0485 168.806 34.3292 168.508 33.7989 167.978C33.2686 167.447 32.9706 166.728 32.9706 165.979V165.979Z" fill="#020A4E"/>
<path d="M23.3401 165.979C23.3401 165.42 23.5059 164.873 23.8166 164.408C24.1274 163.943 24.5691 163.581 25.0858 163.367C25.6025 163.153 26.1712 163.097 26.7197 163.206C27.2683 163.315 27.7721 163.584 28.1676 163.98C28.5631 164.375 28.8324 164.879 28.9415 165.427C29.0506 165.976 28.9946 166.544 28.7806 167.06C28.5666 167.577 28.2041 168.019 27.739 168.329C27.274 168.64 26.7273 168.806 26.168 168.806C25.4179 168.806 24.6987 168.508 24.1684 167.978C23.638 167.447 23.3401 166.728 23.3401 165.979V165.979Z" fill="#020A4E"/>
<path d="M13.7095 165.979C13.7095 165.42 13.8754 164.873 14.1861 164.408C14.4969 163.943 14.9384 163.581 15.4552 163.367C15.9719 163.153 16.5405 163.097 17.0891 163.206C17.6377 163.315 18.1416 163.584 18.5371 163.98C18.9325 164.375 19.2019 164.879 19.311 165.427C19.4201 165.976 19.3641 166.544 19.1501 167.06C18.9361 167.577 18.5736 168.019 18.1085 168.329C17.6435 168.64 17.0968 168.806 16.5375 168.806C15.7874 168.806 15.0681 168.508 14.5377 167.978C14.0074 167.447 13.7095 166.728 13.7095 165.979Z" fill="#020A4E"/>
<path d="M4.07434 165.979C4.07435 165.419 4.24028 164.873 4.55122 164.408C4.86216 163.943 5.30417 163.58 5.82117 163.366C6.33817 163.153 6.90698 163.097 7.45567 163.206C8.00435 163.316 8.50819 163.585 8.9035 163.981C9.29881 164.377 9.56785 164.881 9.67645 165.43C9.78504 165.979 9.72837 166.547 9.51363 167.064C9.29888 167.58 8.93568 168.021 8.47003 168.331C8.00437 168.642 7.45711 168.807 6.8976 168.806C6.52645 168.806 6.15895 168.733 5.81611 168.59C5.47327 168.448 5.16192 168.24 4.89969 167.977C4.63746 167.715 4.4296 167.403 4.28799 167.06C4.14638 166.717 4.07374 166.35 4.07434 165.979Z" fill="#020A4E"/>
<path d="M52.2366 175.703C52.2366 175.144 52.4024 174.598 52.7131 174.133C53.0238 173.668 53.4655 173.305 53.9823 173.091C54.499 172.877 55.0676 172.821 55.6162 172.931C56.1648 173.04 56.6686 173.309 57.064 173.704C57.4595 174.1 57.7289 174.603 57.838 175.152C57.9471 175.7 57.8911 176.269 57.6771 176.785C57.4631 177.302 57.1006 177.743 56.6355 178.054C56.1705 178.364 55.6238 178.53 55.0644 178.53C54.3144 178.53 53.5952 178.232 53.0648 177.702C52.5345 177.172 52.2366 176.453 52.2366 175.703V175.703Z" fill="#020A4E"/>
<path d="M42.6058 175.703C42.6058 175.144 42.7718 174.598 43.0825 174.133C43.3932 173.668 43.8349 173.305 44.3517 173.091C44.8684 172.877 45.4369 172.821 45.9855 172.931C46.534 173.04 47.0379 173.309 47.4334 173.704C47.8289 174.1 48.0983 174.603 48.2074 175.152C48.3165 175.7 48.2605 176.269 48.0465 176.785C47.8324 177.302 47.4699 177.743 47.0049 178.054C46.5398 178.364 45.9931 178.53 45.4338 178.53C45.0623 178.531 44.6942 178.458 44.3509 178.316C44.0075 178.174 43.6955 177.966 43.4328 177.704C43.17 177.441 42.9618 177.129 42.8199 176.786C42.678 176.443 42.6052 176.075 42.6058 175.703V175.703Z" fill="#020A4E"/>
<path d="M35.7985 172.876C37.3603 172.876 38.6265 174.142 38.6265 175.703C38.6265 177.265 37.3603 178.53 35.7985 178.53C34.2367 178.53 32.9706 177.265 32.9706 175.703C32.9706 174.142 34.2367 172.876 35.7985 172.876Z" fill="#020A4E"/>
<path d="M26.168 172.876C27.7298 172.876 28.9959 174.142 28.9959 175.703C28.9959 177.265 27.7298 178.53 26.168 178.53C24.6061 178.53 23.3401 177.265 23.3401 175.703C23.3401 174.142 24.6061 172.876 26.168 172.876Z" fill="#020A4E"/>
<path d="M13.7095 175.703C13.7095 175.144 13.8754 174.598 14.1861 174.133C14.4969 173.668 14.9384 173.305 15.4552 173.091C15.9719 172.877 16.5405 172.821 17.0891 172.931C17.6377 173.04 18.1416 173.309 18.5371 173.704C18.9325 174.1 19.2019 174.603 19.311 175.152C19.4201 175.7 19.3641 176.269 19.1501 176.785C18.9361 177.302 18.5736 177.743 18.1085 178.054C17.6435 178.364 17.0968 178.53 16.5375 178.53C15.7874 178.53 15.0681 178.232 14.5377 177.702C14.0074 177.172 13.7095 176.453 13.7095 175.703Z" fill="#020A4E"/>
<path d="M4.07434 175.703C4.07435 175.144 4.24028 174.597 4.55122 174.132C4.86216 173.667 5.30417 173.305 5.82117 173.091C6.33817 172.877 6.90698 172.821 7.45567 172.931C8.00435 173.04 8.50819 173.31 8.9035 173.706C9.29881 174.102 9.56785 174.606 9.67645 175.155C9.78504 175.703 9.72837 176.272 9.51363 176.788C9.29888 177.305 8.93568 177.746 8.47003 178.056C8.00437 178.366 7.45711 178.531 6.8976 178.53C6.52645 178.53 6.15895 178.457 5.81611 178.315C5.47327 178.173 5.16192 177.965 4.89969 177.702C4.63746 177.439 4.4296 177.128 4.28799 176.785C4.14638 176.442 4.07374 176.074 4.07434 175.703Z" fill="#020A4E"/>
<path d="M81.1329 185.428C81.1329 184.869 81.2987 184.322 81.6095 183.857C81.9202 183.392 82.3619 183.03 82.8786 182.816C83.3954 182.602 83.964 182.546 84.5126 182.655C85.0611 182.764 85.565 183.033 85.9605 183.429C86.356 183.824 86.6252 184.328 86.7344 184.876C86.8435 185.425 86.7875 185.993 86.5735 186.51C86.3594 187.026 85.9969 187.468 85.5319 187.778C85.0668 188.089 84.5201 188.255 83.9608 188.255C83.2108 188.255 82.4915 187.957 81.9612 187.427C81.4309 186.897 81.1329 186.178 81.1329 185.428V185.428Z" fill="#020A4E"/>
<path d="M64.695 182.601C66.2569 182.601 67.5229 183.867 67.5229 185.428C67.5229 186.989 66.2569 188.255 64.695 188.255C63.1332 188.255 61.8671 186.989 61.8671 185.428C61.8671 183.867 63.1332 182.601 64.695 182.601Z" fill="#020A4E"/>
<path d="M52.2366 185.428C52.2366 184.869 52.4024 184.322 52.7131 183.857C53.0238 183.392 53.4655 183.03 53.9823 182.816C54.499 182.602 55.0676 182.546 55.6162 182.655C56.1648 182.764 56.6686 183.033 57.064 183.429C57.4595 183.824 57.7289 184.328 57.838 184.876C57.9471 185.425 57.8911 185.993 57.6771 186.51C57.4631 187.026 57.1006 187.468 56.6355 187.778C56.1705 188.089 55.6238 188.255 55.0644 188.255C54.3144 188.255 53.5952 187.957 53.0648 187.427C52.5345 186.897 52.2366 186.178 52.2366 185.428V185.428Z" fill="#020A4E"/>
<path d="M42.6058 185.428C42.6058 184.869 42.7718 184.322 43.0825 183.857C43.3932 183.392 43.8349 183.03 44.3517 182.816C44.8684 182.602 45.4369 182.546 45.9855 182.655C46.534 182.764 47.0379 183.033 47.4334 183.429C47.8289 183.824 48.0983 184.328 48.2074 184.876C48.3165 185.425 48.2605 185.993 48.0465 186.51C47.8324 187.026 47.4699 187.468 47.0049 187.778C46.5398 188.089 45.9931 188.255 45.4338 188.255C45.0623 188.255 44.6942 188.183 44.3509 188.041C44.0075 187.899 43.6955 187.691 43.4328 187.428C43.17 187.166 42.9618 186.854 42.8199 186.51C42.678 186.167 42.6052 185.799 42.6058 185.428V185.428Z" fill="#020A4E"/>
<path d="M35.7985 182.601C37.3603 182.601 38.6265 183.867 38.6265 185.428C38.6265 186.989 37.3603 188.255 35.7985 188.255C34.2367 188.255 32.9706 186.989 32.9706 185.428C32.9706 183.867 34.2367 182.601 35.7985 182.601Z" fill="#020A4E"/>
<path d="M26.168 182.601C27.7298 182.601 28.9959 183.867 28.9959 185.428C28.9959 186.989 27.7298 188.255 26.168 188.255C24.6061 188.255 23.3401 186.989 23.3401 185.428C23.3401 183.867 24.6061 182.601 26.168 182.601Z" fill="#020A4E"/>
<path d="M13.7095 185.428C13.7095 184.869 13.8754 184.322 14.1861 183.857C14.4969 183.392 14.9384 183.03 15.4552 182.816C15.9719 182.602 16.5405 182.546 17.0891 182.655C17.6377 182.764 18.1416 183.033 18.5371 183.429C18.9325 183.824 19.2019 184.328 19.311 184.876C19.4201 185.425 19.3641 185.993 19.1501 186.51C18.9361 187.026 18.5736 187.468 18.1085 187.778C17.6435 188.089 17.0968 188.255 16.5375 188.255C15.7874 188.255 15.0681 187.957 14.5377 187.427C14.0074 186.897 13.7095 186.178 13.7095 185.428Z" fill="#020A4E"/>
<path d="M4.07434 185.428C4.07435 184.869 4.24028 184.322 4.55122 183.857C4.86216 183.392 5.30417 183.029 5.82117 182.816C6.33817 182.602 6.90698 182.546 7.45567 182.655C8.00435 182.765 8.50819 183.035 8.9035 183.43C9.29881 183.826 9.56785 184.33 9.67645 184.879C9.78504 185.428 9.72837 185.996 9.51363 186.513C9.29888 187.029 8.93568 187.471 8.47003 187.781C8.00437 188.091 7.45711 188.256 6.8976 188.255C6.52645 188.255 6.15895 188.182 5.81611 188.04C5.47327 187.897 5.16192 187.689 4.89969 187.427C4.63746 187.164 4.4296 186.852 4.28799 186.509C4.14638 186.166 4.07374 185.799 4.07434 185.428Z" fill="#020A4E"/>
<path d="M61.8671 195.128C61.8671 194.569 62.033 194.022 62.3437 193.557C62.6545 193.093 63.096 192.73 63.6128 192.516C64.1295 192.302 64.6981 192.246 65.2467 192.355C65.7953 192.464 66.2992 192.734 66.6946 193.129C67.0901 193.524 67.3595 194.028 67.4686 194.577C67.5777 195.125 67.5217 195.693 67.3077 196.21C67.0937 196.726 66.7312 197.168 66.2661 197.479C65.8011 197.789 65.2544 197.955 64.695 197.955C63.945 197.955 63.2257 197.657 62.6953 197.127C62.165 196.597 61.8671 195.878 61.8671 195.128V195.128Z" fill="#020A4E"/>
<path d="M52.2366 195.128C52.2366 194.569 52.4024 194.022 52.7131 193.557C53.0238 193.093 53.4655 192.73 53.9823 192.516C54.499 192.302 55.0676 192.246 55.6162 192.355C56.1648 192.464 56.6686 192.734 57.064 193.129C57.4595 193.524 57.7289 194.028 57.838 194.577C57.9471 195.125 57.8911 195.693 57.6771 196.21C57.4631 196.726 57.1006 197.168 56.6355 197.479C56.1705 197.789 55.6238 197.955 55.0644 197.955C54.3144 197.955 53.5952 197.657 53.0648 197.127C52.5345 196.597 52.2366 195.878 52.2366 195.128V195.128Z" fill="#020A4E"/>
<path d="M42.6058 195.128C42.6058 194.569 42.7718 194.022 43.0825 193.557C43.3932 193.093 43.8349 192.73 44.3517 192.516C44.8684 192.302 45.4369 192.246 45.9855 192.355C46.534 192.464 47.0379 192.734 47.4334 193.129C47.8289 193.524 48.0983 194.028 48.2074 194.577C48.3165 195.125 48.2605 195.693 48.0465 196.21C47.8324 196.726 47.4699 197.168 47.0049 197.479C46.5398 197.789 45.9931 197.955 45.4338 197.955C45.0623 197.956 44.6942 197.883 44.3509 197.741C44.0075 197.599 43.6955 197.391 43.4328 197.128C43.17 196.866 42.9618 196.554 42.8199 196.211C42.678 195.867 42.6052 195.499 42.6058 195.128V195.128Z" fill="#020A4E"/>
<path d="M32.9706 195.128C32.9706 194.569 33.1364 194.022 33.4472 193.557C33.7579 193.093 34.1996 192.73 34.7163 192.516C35.2331 192.302 35.8017 192.246 36.3503 192.355C36.8988 192.464 37.4027 192.734 37.7982 193.129C38.1937 193.524 38.4631 194.028 38.5722 194.577C38.6813 195.125 38.6253 195.693 38.4113 196.21C38.1972 196.726 37.8347 197.168 37.3697 197.479C36.9047 197.789 36.3578 197.955 35.7985 197.955C35.0485 197.955 34.3292 197.657 33.7989 197.127C33.2686 196.597 32.9706 195.878 32.9706 195.128V195.128Z" fill="#020A4E"/>
<path d="M23.3401 195.128C23.3401 194.569 23.5059 194.022 23.8166 193.557C24.1274 193.093 24.5691 192.73 25.0858 192.516C25.6025 192.302 26.1712 192.246 26.7197 192.355C27.2683 192.464 27.7721 192.734 28.1676 193.129C28.5631 193.524 28.8324 194.028 28.9415 194.577C29.0506 195.125 28.9946 195.693 28.7806 196.21C28.5666 196.726 28.2041 197.168 27.739 197.479C27.274 197.789 26.7273 197.955 26.168 197.955C25.4179 197.955 24.6987 197.657 24.1684 197.127C23.638 196.597 23.3401 195.878 23.3401 195.128V195.128Z" fill="#020A4E"/>
<path d="M13.7095 195.128C13.7095 194.569 13.8754 194.022 14.1861 193.557C14.4969 193.093 14.9384 192.73 15.4552 192.516C15.9719 192.302 16.5405 192.246 17.0891 192.355C17.6377 192.464 18.1416 192.734 18.5371 193.129C18.9325 193.524 19.2019 194.028 19.311 194.577C19.4201 195.125 19.3641 195.693 19.1501 196.21C18.9361 196.726 18.5736 197.168 18.1085 197.479C17.6435 197.789 17.0968 197.955 16.5375 197.955C15.7874 197.955 15.0681 197.657 14.5377 197.127C14.0074 196.597 13.7095 195.878 13.7095 195.128V195.128Z" fill="#020A4E"/>
<path d="M4.07434 195.128C4.07435 194.569 4.24028 194.022 4.55122 193.557C4.86216 193.092 5.30417 192.73 5.82117 192.516C6.33817 192.302 6.90698 192.246 7.45567 192.356C8.00435 192.465 8.50819 192.735 8.9035 193.131C9.29881 193.526 9.56785 194.031 9.67645 194.579C9.78504 195.128 9.72837 195.697 9.51363 196.213C9.29888 196.73 8.93568 197.171 8.47003 197.481C8.00437 197.791 7.45711 197.956 6.8976 197.955C6.52645 197.955 6.15895 197.882 5.81611 197.74C5.47327 197.598 5.16192 197.389 4.89969 197.127C4.63746 196.864 4.4296 196.553 4.28799 196.21C4.14638 195.867 4.07374 195.499 4.07434 195.128Z" fill="#020A4E"/>
<path d="M81.1329 204.876C81.1329 204.317 81.2987 203.77 81.6095 203.305C81.9202 202.841 82.3619 202.478 82.8786 202.264C83.3954 202.05 83.964 201.994 84.5126 202.103C85.0611 202.212 85.565 202.482 85.9605 202.877C86.356 203.272 86.6252 203.776 86.7344 204.325C86.8435 204.873 86.7875 205.441 86.5735 205.958C86.3594 206.475 85.9969 206.916 85.5319 207.227C85.0668 207.537 84.5201 207.703 83.9608 207.703C83.2108 207.703 82.4915 207.405 81.9612 206.875C81.4309 206.345 81.1329 205.626 81.1329 204.876V204.876Z" fill="#020A4E"/>
<path d="M71.4976 204.876C71.4976 204.317 71.6635 203.77 71.9742 203.305C72.2849 202.841 72.7266 202.478 73.2434 202.264C73.7601 202.05 74.3286 201.994 74.8772 202.103C75.4258 202.212 75.9297 202.482 76.3251 202.877C76.7206 203.272 76.99 203.776 77.0991 204.325C77.2082 204.873 77.1522 205.441 76.9382 205.958C76.7242 206.475 76.3617 206.916 75.8966 207.227C75.4316 207.537 74.8848 207.703 74.3255 207.703C73.5755 207.703 72.8563 207.405 72.3259 206.875C71.7956 206.345 71.4976 205.626 71.4976 204.876Z" fill="#020A4E"/>
<path d="M61.8671 204.876C61.8671 204.317 62.033 203.77 62.3437 203.305C62.6545 202.841 63.096 202.478 63.6128 202.264C64.1295 202.05 64.6981 201.994 65.2467 202.103C65.7953 202.212 66.2992 202.482 66.6946 202.877C67.0901 203.272 67.3595 203.776 67.4686 204.325C67.5777 204.873 67.5217 205.441 67.3077 205.958C67.0937 206.475 66.7312 206.916 66.2661 207.227C65.8011 207.537 65.2544 207.703 64.695 207.703C63.945 207.703 63.2257 207.405 62.6953 206.875C62.165 206.345 61.8671 205.626 61.8671 204.876V204.876Z" fill="#020A4E"/>
<path d="M52.2366 204.876C52.2366 204.317 52.4024 203.77 52.7131 203.305C53.0238 202.841 53.4655 202.478 53.9823 202.264C54.499 202.05 55.0676 201.994 55.6162 202.103C56.1648 202.212 56.6686 202.482 57.064 202.877C57.4595 203.272 57.7289 203.776 57.838 204.325C57.9471 204.873 57.8911 205.441 57.6771 205.958C57.4631 206.475 57.1006 206.916 56.6355 207.227C56.1705 207.537 55.6238 207.703 55.0644 207.703C54.3144 207.703 53.5952 207.405 53.0648 206.875C52.5345 206.345 52.2366 205.626 52.2366 204.876V204.876Z" fill="#020A4E"/>
<path d="M42.6058 204.876C42.6058 204.317 42.7718 203.77 43.0825 203.305C43.3932 202.841 43.8349 202.478 44.3517 202.264C44.8684 202.05 45.4369 201.994 45.9855 202.103C46.534 202.212 47.0379 202.482 47.4334 202.877C47.8289 203.272 48.0983 203.776 48.2074 204.325C48.3165 204.873 48.2605 205.441 48.0465 205.958C47.8324 206.475 47.4699 206.916 47.0049 207.227C46.5398 207.537 45.9931 207.703 45.4338 207.703C45.0623 207.704 44.6942 207.631 44.3509 207.489C44.0075 207.347 43.6955 207.139 43.4328 206.876C43.17 206.614 42.9618 206.302 42.8199 205.959C42.678 205.615 42.6052 205.248 42.6058 204.876V204.876Z" fill="#020A4E"/>
<path d="M32.9706 204.876C32.9706 204.317 33.1364 203.77 33.4472 203.305C33.7579 202.841 34.1996 202.478 34.7163 202.264C35.2331 202.05 35.8017 201.994 36.3503 202.103C36.8988 202.212 37.4027 202.482 37.7982 202.877C38.1937 203.272 38.4631 203.776 38.5722 204.325C38.6813 204.873 38.6253 205.441 38.4113 205.958C38.1972 206.475 37.8347 206.916 37.3697 207.227C36.9047 207.537 36.3578 207.703 35.7985 207.703C35.0485 207.703 34.3292 207.405 33.7989 206.875C33.2686 206.345 32.9706 205.626 32.9706 204.876V204.876Z" fill="#020A4E"/>
<path d="M23.3401 204.876C23.3401 204.317 23.5059 203.77 23.8166 203.305C24.1274 202.841 24.5691 202.478 25.0858 202.264C25.6025 202.05 26.1712 201.994 26.7197 202.103C27.2683 202.212 27.7721 202.482 28.1676 202.877C28.5631 203.272 28.8324 203.776 28.9415 204.325C29.0506 204.873 28.9946 205.441 28.7806 205.958C28.5666 206.475 28.2041 206.916 27.739 207.227C27.274 207.537 26.7273 207.703 26.168 207.703C25.4179 207.703 24.6987 207.405 24.1684 206.875C23.638 206.345 23.3401 205.626 23.3401 204.876V204.876Z" fill="#020A4E"/>
<path d="M13.7095 204.876C13.7095 204.317 13.8754 203.77 14.1861 203.305C14.4969 202.841 14.9384 202.478 15.4552 202.264C15.9719 202.05 16.5405 201.994 17.0891 202.103C17.6377 202.212 18.1416 202.482 18.5371 202.877C18.9325 203.272 19.2019 203.776 19.311 204.325C19.4201 204.873 19.3641 205.441 19.1501 205.958C18.9361 206.475 18.5736 206.916 18.1085 207.227C17.6435 207.537 17.0968 207.703 16.5375 207.703C15.7874 207.703 15.0681 207.405 14.5377 206.875C14.0074 206.345 13.7095 205.626 13.7095 204.876Z" fill="#020A4E"/>
<path d="M4.07434 204.876C4.07435 204.317 4.24028 203.77 4.55122 203.305C4.86216 202.84 5.30417 202.478 5.82117 202.264C6.33817 202.05 6.90698 201.994 7.45567 202.104C8.00435 202.213 8.50819 202.483 8.9035 202.879C9.29881 203.275 9.56785 203.779 9.67645 204.327C9.78504 204.876 9.72837 205.445 9.51363 205.961C9.29888 206.478 8.93568 206.919 8.47003 207.229C8.00437 207.539 7.45711 207.704 6.8976 207.703C6.52645 207.703 6.15895 207.63 5.81611 207.488C5.47327 207.346 5.16192 207.137 4.89969 206.875C4.63746 206.612 4.4296 206.301 4.28799 205.958C4.14638 205.615 4.07374 205.247 4.07434 204.876Z" fill="#020A4E"/>
<path d="M141.749 211.773C143.311 211.773 144.577 213.038 144.577 214.6C144.577 216.161 143.311 217.427 141.749 217.427C140.187 217.427 138.921 216.161 138.921 214.6C138.921 213.038 140.187 211.773 141.749 211.773Z" fill="#020A4E"/>
<path d="M132.118 211.773C133.68 211.773 134.946 213.038 134.946 214.6C134.946 216.161 133.68 217.427 132.118 217.427C130.556 217.427 129.29 216.161 129.29 214.6C129.29 213.038 130.556 211.773 132.118 211.773Z" fill="#020A4E"/>
<path d="M81.1329 214.6C81.1329 214.041 81.2987 213.494 81.6095 213.029C81.9202 212.564 82.3619 212.202 82.8786 211.988C83.3954 211.774 83.964 211.718 84.5126 211.827C85.0611 211.936 85.565 212.205 85.9605 212.601C86.356 212.996 86.6252 213.5 86.7344 214.048C86.8435 214.597 86.7875 215.165 86.5735 215.682C86.3594 216.198 85.9969 216.64 85.5319 216.95C85.0668 217.261 84.5201 217.427 83.9608 217.427C83.2108 217.427 82.4915 217.129 81.9612 216.599C81.4309 216.069 81.1329 215.35 81.1329 214.6V214.6Z" fill="#020A4E"/>
<path d="M74.3255 211.773C75.8874 211.773 77.1534 213.038 77.1534 214.6C77.1534 216.161 75.8874 217.427 74.3255 217.427C72.7637 217.427 71.4976 216.161 71.4976 214.6C71.4976 213.038 72.7637 211.773 74.3255 211.773Z" fill="#020A4E"/>
<path d="M64.695 211.773C66.2569 211.773 67.5229 213.038 67.5229 214.6C67.5229 216.161 66.2569 217.427 64.695 217.427C63.1332 217.427 61.8671 216.161 61.8671 214.6C61.8671 213.038 63.1332 211.773 64.695 211.773Z" fill="#020A4E"/>
<path d="M52.2366 214.6C52.2366 214.041 52.4024 213.494 52.7131 213.029C53.0238 212.564 53.4655 212.202 53.9823 211.988C54.499 211.774 55.0676 211.718 55.6162 211.827C56.1648 211.936 56.6686 212.205 57.064 212.601C57.4595 212.996 57.7289 213.5 57.838 214.048C57.9471 214.597 57.8911 215.165 57.6771 215.682C57.4631 216.198 57.1006 216.64 56.6355 216.95C56.1705 217.261 55.6238 217.427 55.0644 217.427C54.3144 217.427 53.5952 217.129 53.0648 216.599C52.5345 216.069 52.2366 215.35 52.2366 214.6V214.6Z" fill="#020A4E"/>
<path d="M42.6058 214.6C42.6058 214.041 42.7718 213.494 43.0825 213.029C43.3932 212.564 43.8349 212.202 44.3517 211.988C44.8684 211.774 45.4369 211.718 45.9855 211.827C46.534 211.936 47.0379 212.205 47.4334 212.601C47.8289 212.996 48.0983 213.5 48.2074 214.048C48.3165 214.597 48.2605 215.165 48.0465 215.682C47.8324 216.198 47.4699 216.64 47.0049 216.95C46.5398 217.261 45.9931 217.427 45.4338 217.427C45.0623 217.427 44.6942 217.355 44.3509 217.213C44.0075 217.071 43.6955 216.863 43.4328 216.6C43.17 216.337 42.9618 216.026 42.8199 215.682C42.678 215.339 42.6052 214.971 42.6058 214.6V214.6Z" fill="#020A4E"/>
<path d="M35.7985 211.773C37.3603 211.773 38.6265 213.038 38.6265 214.6C38.6265 216.161 37.3603 217.427 35.7985 217.427C34.2367 217.427 32.9706 216.161 32.9706 214.6C32.9706 213.038 34.2367 211.773 35.7985 211.773Z" fill="#020A4E"/>
<path d="M26.168 211.773C27.7298 211.773 28.9959 213.038 28.9959 214.6C28.9959 216.161 27.7298 217.427 26.168 217.427C24.6061 217.427 23.3401 216.161 23.3401 214.6C23.3401 213.038 24.6061 211.773 26.168 211.773Z" fill="#020A4E"/>
<path d="M13.7095 214.6C13.7095 214.041 13.8754 213.494 14.1861 213.029C14.4969 212.564 14.9384 212.202 15.4552 211.988C15.9719 211.774 16.5405 211.718 17.0891 211.827C17.6377 211.936 18.1416 212.205 18.5371 212.601C18.9325 212.996 19.2019 213.5 19.311 214.048C19.4201 214.597 19.3641 215.165 19.1501 215.682C18.9361 216.198 18.5736 216.64 18.1085 216.95C17.6435 217.261 17.0968 217.427 16.5375 217.427C15.7874 217.427 15.0681 217.129 14.5377 216.599C14.0074 216.069 13.7095 215.35 13.7095 214.6V214.6Z" fill="#020A4E"/>
<path d="M4.07434 214.6C4.07435 214.04 4.24028 213.494 4.55122 213.029C4.86216 212.564 5.30417 212.201 5.82117 211.987C6.33817 211.774 6.90698 211.718 7.45567 211.827C8.00435 211.937 8.50819 212.207 8.9035 212.602C9.29881 212.998 9.56785 213.502 9.67645 214.051C9.78504 214.6 9.72837 215.168 9.51363 215.685C9.29888 216.201 8.93568 216.642 8.47003 216.953C8.00437 217.263 7.45711 217.428 6.8976 217.427C6.52645 217.427 6.15895 217.354 5.81611 217.211C5.47327 217.069 5.16192 216.861 4.89969 216.598C4.63746 216.336 4.4296 216.024 4.28799 215.681C4.14638 215.338 4.07374 214.971 4.07434 214.6Z" fill="#020A4E"/>
<path d="M141.749 221.497C143.311 221.497 144.577 222.763 144.577 224.324C144.577 225.886 143.311 227.151 141.749 227.151C140.187 227.151 138.921 225.886 138.921 224.324C138.921 222.763 140.187 221.497 141.749 221.497Z" fill="#020A4E"/>
<path d="M132.118 221.497C133.68 221.497 134.946 222.763 134.946 224.324C134.946 225.886 133.68 227.151 132.118 227.151C130.556 227.151 129.29 225.886 129.29 224.324C129.29 222.763 130.556 221.497 132.118 221.497Z" fill="#020A4E"/>
<path d="M52.2366 224.324C52.2366 223.765 52.4024 223.219 52.7131 222.754C53.0238 222.289 53.4655 221.926 53.9823 221.712C54.499 221.499 55.0676 221.443 55.6162 221.552C56.1648 221.661 56.6686 221.93 57.064 222.325C57.4595 222.721 57.7289 223.224 57.838 223.773C57.9471 224.321 57.8911 224.89 57.6771 225.406C57.4631 225.923 57.1006 226.364 56.6355 226.675C56.1705 226.986 55.6238 227.151 55.0644 227.151C54.3144 227.151 53.5952 226.854 53.0648 226.323C52.5345 225.793 52.2366 225.074 52.2366 224.324Z" fill="#020A4E"/>
<path d="M42.6058 224.324C42.6058 223.765 42.7718 223.219 43.0825 222.754C43.3932 222.289 43.8349 221.926 44.3517 221.712C44.8684 221.499 45.4369 221.443 45.9855 221.552C46.534 221.661 47.0379 221.93 47.4334 222.325C47.8289 222.721 48.0983 223.224 48.2074 223.773C48.3165 224.321 48.2605 224.89 48.0465 225.406C47.8324 225.923 47.4699 226.364 47.0049 226.675C46.5398 226.986 45.9931 227.151 45.4338 227.151C45.0623 227.152 44.6942 227.079 44.3509 226.937C44.0075 226.796 43.6955 226.587 43.4328 226.325C43.17 226.062 42.9618 225.75 42.8199 225.407C42.678 225.064 42.6052 224.696 42.6058 224.324V224.324Z" fill="#020A4E"/>
<path d="M35.7985 221.497C37.3603 221.497 38.6265 222.763 38.6265 224.324C38.6265 225.886 37.3603 227.151 35.7985 227.151C34.2367 227.151 32.9706 225.886 32.9706 224.324C32.9706 222.763 34.2367 221.497 35.7985 221.497Z" fill="#020A4E"/>
<path d="M26.168 221.497C27.7298 221.497 28.9959 222.763 28.9959 224.324C28.9959 225.886 27.7298 227.151 26.168 227.151C24.6061 227.151 23.3401 225.886 23.3401 224.324C23.3401 222.763 24.6061 221.497 26.168 221.497Z" fill="#020A4E"/>
<path d="M13.7095 224.324C13.7095 223.765 13.8754 223.219 14.1861 222.754C14.4969 222.289 14.9384 221.926 15.4552 221.712C15.9719 221.499 16.5405 221.443 17.0891 221.552C17.6377 221.661 18.1416 221.93 18.5371 222.325C18.9325 222.721 19.2019 223.224 19.311 223.773C19.4201 224.321 19.3641 224.89 19.1501 225.406C18.9361 225.923 18.5736 226.364 18.1085 226.675C17.6435 226.986 17.0968 227.151 16.5375 227.151C15.7874 227.151 15.0681 226.854 14.5377 226.323C14.0074 225.793 13.7095 225.074 13.7095 224.324V224.324Z" fill="#020A4E"/>
<path d="M4.07434 224.324C4.07435 223.765 4.24028 223.218 4.55122 222.753C4.86216 222.288 5.30417 221.926 5.82117 221.712C6.33817 221.498 6.90698 221.443 7.45567 221.552C8.00435 221.661 8.50819 221.931 8.9035 222.327C9.29881 222.723 9.56785 223.227 9.67645 223.776C9.78504 224.324 9.72837 224.893 9.51363 225.409C9.29888 225.926 8.93568 226.367 8.47003 226.677C8.00437 226.987 7.45711 227.152 6.8976 227.151C6.52645 227.151 6.15895 227.078 5.81611 226.936C5.47327 226.794 5.16192 226.586 4.89969 226.323C4.63746 226.06 4.4296 225.749 4.28799 225.406C4.14638 225.063 4.07374 224.695 4.07434 224.324Z" fill="#020A4E"/>
<path d="M141.749 231.226C143.311 231.226 144.577 232.492 144.577 234.053C144.577 235.614 143.311 236.88 141.749 236.88C140.187 236.88 138.921 235.614 138.921 234.053C138.921 232.492 140.187 231.226 141.749 231.226Z" fill="#020A4E"/>
<path d="M132.118 231.226C133.68 231.226 134.946 232.492 134.946 234.053C134.946 235.614 133.68 236.88 132.118 236.88C130.556 236.88 129.29 235.614 129.29 234.053C129.29 232.492 130.556 231.226 132.118 231.226Z" fill="#020A4E"/>
<path d="M64.695 231.226C66.2569 231.226 67.5229 232.492 67.5229 234.053C67.5229 235.614 66.2569 236.88 64.695 236.88C63.1332 236.88 61.8671 235.614 61.8671 234.053C61.8671 232.492 63.1332 231.226 64.695 231.226Z" fill="#020A4E"/>
<path d="M52.2366 234.054C52.2357 233.494 52.4007 232.947 52.7109 232.482C53.021 232.016 53.4624 231.653 53.979 231.438C54.4957 231.224 55.0644 231.167 55.6133 231.276C56.1622 231.384 56.6665 231.653 57.0625 232.048C57.4584 232.443 57.7282 232.947 57.8377 233.496C57.9472 234.044 57.8914 234.613 57.6775 235.13C57.4636 235.647 57.1012 236.088 56.6361 236.399C56.1709 236.71 55.624 236.876 55.0644 236.876C54.6933 236.877 54.3257 236.804 53.9826 236.662C53.6395 236.521 53.3277 236.313 53.0651 236.051C52.8024 235.789 52.5941 235.477 52.4519 235.135C52.3097 234.792 52.2366 234.425 52.2366 234.054V234.054Z" fill="#020A4E"/>
<path d="M42.6058 234.054C42.6049 233.494 42.7701 232.947 43.0802 232.482C43.3904 232.016 43.8317 231.653 44.3484 231.438C44.865 231.224 45.4338 231.167 45.9827 231.276C46.5315 231.384 47.0359 231.653 47.4318 232.048C47.8278 232.443 48.0976 232.947 48.207 233.496C48.3165 234.044 48.2608 234.613 48.0469 235.13C47.833 235.647 47.4705 236.088 47.0053 236.399C46.5402 236.71 45.9933 236.876 45.4338 236.876C45.0627 236.877 44.6951 236.804 44.352 236.662C44.0089 236.521 43.6971 236.313 43.4344 236.051C43.1718 235.789 42.9635 235.477 42.8213 235.135C42.6791 234.792 42.6058 234.425 42.6058 234.054Z" fill="#020A4E"/>
<path d="M35.7985 231.226C37.3603 231.226 38.6265 232.492 38.6265 234.053C38.6265 235.614 37.3603 236.88 35.7985 236.88C34.2367 236.88 32.9706 235.614 32.9706 234.053C32.9706 232.492 34.2367 231.226 35.7985 231.226Z" fill="#020A4E"/>
<path d="M26.168 231.226C27.7298 231.226 28.9959 232.492 28.9959 234.053C28.9959 235.614 27.7298 236.88 26.168 236.88C24.6061 236.88 23.3401 235.614 23.3401 234.053C23.3401 232.492 24.6061 231.226 26.168 231.226Z" fill="#020A4E"/>
<path d="M13.7095 234.054C13.7086 233.494 13.8737 232.947 14.1839 232.482C14.4941 232.016 14.9354 231.653 15.452 231.438C15.9687 231.224 16.5374 231.167 17.0863 231.276C17.6352 231.384 18.1395 231.653 18.5355 232.048C18.9314 232.443 19.2012 232.947 19.3107 233.496C19.4202 234.044 19.3645 234.613 19.1506 235.13C18.9367 235.647 18.5741 236.088 18.109 236.399C17.6438 236.71 17.097 236.876 16.5375 236.876C16.1663 236.877 15.7987 236.804 15.4556 236.662C15.1126 236.521 14.8007 236.313 14.5381 236.051C14.2754 235.789 14.0671 235.477 13.9249 235.135C13.7827 234.792 13.7095 234.425 13.7095 234.054V234.054Z" fill="#020A4E"/>
<path d="M4.07434 234.054C4.07343 233.494 4.23859 232.947 4.54897 232.481C4.85936 232.016 5.30099 231.653 5.81791 231.438C6.33483 231.223 6.90386 231.167 7.45285 231.276C8.00185 231.385 8.50616 231.654 8.90193 232.05C9.2977 232.446 9.56714 232.95 9.67611 233.499C9.78508 234.047 9.72869 234.616 9.51408 235.133C9.29947 235.65 8.93623 236.091 8.47048 236.401C8.00472 236.712 7.4573 236.877 6.8976 236.876C6.14881 236.876 5.43074 236.579 4.90126 236.049C4.37179 235.52 4.07434 234.802 4.07434 234.054V234.054Z" fill="#020A4E"/>
<path d="M158.187 243.777C158.187 243.218 158.353 242.672 158.663 242.207C158.974 241.742 159.416 241.38 159.932 241.166C160.449 240.952 161.018 240.896 161.566 241.005C162.115 241.114 162.619 241.383 163.014 241.778C163.41 242.174 163.679 242.678 163.788 243.226C163.897 243.774 163.841 244.343 163.627 244.859C163.413 245.376 163.051 245.817 162.586 246.128C162.121 246.439 161.574 246.604 161.015 246.604C160.643 246.605 160.275 246.532 159.932 246.391C159.588 246.249 159.276 246.04 159.014 245.778C158.751 245.515 158.543 245.203 158.401 244.86C158.259 244.517 158.186 244.149 158.187 243.777V243.777Z" fill="#020A4E"/>
<path d="M148.556 243.777C148.556 243.218 148.722 242.672 149.033 242.207C149.343 241.742 149.785 241.38 150.302 241.166C150.818 240.952 151.387 240.896 151.936 241.005C152.484 241.114 152.988 241.383 153.384 241.778C153.779 242.174 154.048 242.678 154.158 243.226C154.267 243.774 154.211 244.343 153.997 244.859C153.783 245.376 153.42 245.817 152.955 246.128C152.49 246.439 151.943 246.604 151.384 246.604C151.012 246.605 150.644 246.532 150.301 246.391C149.958 246.249 149.646 246.04 149.383 245.778C149.12 245.515 148.912 245.203 148.77 244.86C148.628 244.517 148.555 244.149 148.556 243.777V243.777Z" fill="#020A4E"/>
<path d="M119.678 243.777C119.678 243.218 119.844 242.672 120.155 242.207C120.466 241.742 120.907 241.38 121.424 241.166C121.941 240.952 122.509 240.896 123.058 241.005C123.606 241.114 124.11 241.383 124.506 241.778C124.901 242.174 125.171 242.678 125.28 243.226C125.389 243.774 125.333 244.343 125.119 244.859C124.905 245.376 124.542 245.817 124.077 246.128C123.612 246.439 123.065 246.604 122.506 246.604C122.135 246.605 121.767 246.532 121.423 246.391C121.08 246.249 120.768 246.04 120.505 245.778C120.242 245.515 120.034 245.203 119.892 244.86C119.75 244.517 119.678 244.149 119.678 243.777V243.777Z" fill="#020A4E"/>
<path d="M110.006 243.777C110.006 243.218 110.172 242.672 110.483 242.207C110.794 241.742 111.235 241.38 111.752 241.166C112.269 240.952 112.837 240.896 113.386 241.005C113.934 241.114 114.438 241.383 114.834 241.778C115.229 242.174 115.499 242.678 115.608 243.226C115.717 243.774 115.661 244.343 115.447 244.859C115.233 245.376 114.87 245.817 114.405 246.128C113.94 246.439 113.393 246.604 112.834 246.604C112.463 246.605 112.095 246.532 111.751 246.391C111.408 246.249 111.096 246.04 110.833 245.778C110.57 245.515 110.362 245.203 110.22 244.86C110.078 244.517 110.006 244.149 110.006 243.777V243.777Z" fill="#020A4E"/>
<path d="M100.394 243.777C100.394 243.218 100.56 242.672 100.871 242.207C101.181 241.742 101.623 241.38 102.14 241.166C102.656 240.952 103.225 240.896 103.774 241.005C104.322 241.114 104.826 241.383 105.222 241.778C105.617 242.174 105.886 242.678 105.995 243.226C106.105 243.774 106.049 244.343 105.835 244.859C105.621 245.376 105.258 245.817 104.793 246.128C104.328 246.439 103.781 246.604 103.222 246.604C102.85 246.605 102.482 246.532 102.139 246.391C101.796 246.249 101.484 246.04 101.221 245.778C100.958 245.515 100.75 245.203 100.608 244.86C100.466 244.517 100.393 244.149 100.394 243.777V243.777Z" fill="#020A4E"/>
<path d="M90.7633 243.777C90.7633 243.218 90.9292 242.672 91.24 242.207C91.5507 241.742 91.9923 241.38 92.509 241.166C93.0257 240.952 93.5944 240.896 94.1429 241.005C94.6915 241.114 95.1954 241.383 95.5909 241.778C95.9864 242.174 96.2557 242.678 96.3648 243.226C96.474 243.774 96.418 244.343 96.2039 244.859C95.9899 245.376 95.6274 245.817 95.1624 246.128C94.6973 246.439 94.1506 246.604 93.5913 246.604C93.2198 246.605 92.8517 246.532 92.5083 246.391C92.165 246.249 91.8529 246.04 91.5902 245.778C91.3275 245.515 91.1193 245.203 90.9774 244.86C90.8355 244.517 90.7627 244.149 90.7633 243.777V243.777Z" fill="#020A4E"/>
<path d="M81.1329 243.777C81.1329 243.218 81.2987 242.672 81.6095 242.207C81.9202 241.742 82.3619 241.38 82.8786 241.166C83.3954 240.952 83.964 240.896 84.5126 241.005C85.0611 241.114 85.565 241.383 85.9605 241.778C86.356 242.174 86.6252 242.678 86.7344 243.226C86.8435 243.774 86.7875 244.343 86.5735 244.859C86.3594 245.376 85.9969 245.817 85.5319 246.128C85.0668 246.439 84.5201 246.604 83.9608 246.604C83.5893 246.605 83.2213 246.532 82.878 246.391C82.5346 246.249 82.2226 246.04 81.9599 245.778C81.6971 245.515 81.4888 245.203 81.3469 244.86C81.205 244.517 81.1323 244.149 81.1329 243.777V243.777Z" fill="#020A4E"/>
<path d="M71.4976 243.777C71.4976 243.218 71.6635 242.672 71.9742 242.207C72.285 241.742 72.7266 241.38 73.2434 241.166C73.7601 240.952 74.3286 240.896 74.8772 241.005C75.4258 241.114 75.9297 241.383 76.3251 241.778C76.7206 242.174 76.99 242.678 77.0991 243.226C77.2082 243.774 77.1522 244.343 76.9382 244.859C76.7242 245.376 76.3617 245.817 75.8966 246.128C75.4316 246.439 74.8849 246.604 74.3255 246.604C73.954 246.605 73.586 246.532 73.2426 246.391C72.8992 246.249 72.5873 246.04 72.3246 245.778C72.0619 245.515 71.8536 245.203 71.7117 244.86C71.5698 244.517 71.497 244.149 71.4976 243.777V243.777Z" fill="#020A4E"/>
<path d="M61.8671 243.777C61.8671 243.218 62.033 242.672 62.3437 242.207C62.6545 241.742 63.096 241.38 63.6128 241.166C64.1295 240.952 64.6981 240.896 65.2467 241.005C65.7953 241.114 66.2992 241.383 66.6947 241.778C67.0901 242.174 67.3595 242.678 67.4686 243.226C67.5777 243.774 67.5217 244.343 67.3077 244.859C67.0937 245.376 66.7312 245.817 66.2661 246.128C65.8011 246.439 65.2544 246.604 64.6951 246.604C64.3235 246.605 63.9555 246.532 63.6121 246.391C63.2687 246.249 62.9567 246.04 62.694 245.778C62.4313 245.515 62.223 245.203 62.0811 244.86C61.9391 244.517 61.8665 244.149 61.8671 243.777V243.777Z" fill="#020A4E"/>
<path d="M52.2366 243.777C52.2366 243.218 52.4024 242.672 52.7131 242.207C53.0239 241.742 53.4655 241.38 53.9823 241.166C54.499 240.952 55.0676 240.896 55.6162 241.005C56.1648 241.114 56.6686 241.383 57.064 241.778C57.4595 242.174 57.7289 242.678 57.838 243.226C57.9471 243.774 57.8911 244.343 57.6771 244.859C57.4631 245.376 57.1006 245.817 56.6355 246.128C56.1705 246.439 55.6238 246.604 55.0644 246.604C54.6929 246.605 54.325 246.532 53.9816 246.391C53.6382 246.249 53.3262 246.04 53.0635 245.778C52.8008 245.515 52.5925 245.203 52.4506 244.86C52.3087 244.517 52.236 244.149 52.2366 243.777V243.777Z" fill="#020A4E"/>
<path d="M42.6058 243.777C42.6058 243.218 42.7718 242.672 43.0825 242.207C43.3932 241.742 43.8349 241.38 44.3517 241.166C44.8684 240.952 45.4369 240.896 45.9855 241.005C46.534 241.114 47.0379 241.383 47.4334 241.778C47.8289 242.174 48.0983 242.678 48.2074 243.226C48.3165 243.774 48.2605 244.343 48.0465 244.859C47.8324 245.376 47.4699 245.817 47.0049 246.128C46.5398 246.439 45.9931 246.604 45.4338 246.604C45.0623 246.605 44.6942 246.532 44.3509 246.391C44.0075 246.249 43.6955 246.04 43.4328 245.778C43.17 245.515 42.9618 245.203 42.8199 244.86C42.678 244.517 42.6052 244.149 42.6058 243.777V243.777Z" fill="#020A4E"/>
<path d="M32.9706 243.777C32.9706 243.218 33.1365 242.672 33.4472 242.207C33.7579 241.742 34.1996 241.38 34.7163 241.166C35.2331 240.952 35.8017 240.896 36.3503 241.005C36.8988 241.114 37.4027 241.383 37.7982 241.778C38.1937 242.174 38.4631 242.678 38.5722 243.226C38.6813 243.774 38.6253 244.343 38.4113 244.859C38.1972 245.376 37.8348 245.817 37.3697 246.128C36.9047 246.439 36.3578 246.604 35.7985 246.604C35.427 246.605 35.059 246.532 34.7157 246.391C34.3723 246.249 34.0603 246.04 33.7976 245.778C33.5348 245.515 33.3265 245.203 33.1846 244.86C33.0427 244.517 32.97 244.149 32.9706 243.777V243.777Z" fill="#020A4E"/>
<path d="M23.3401 243.777C23.3401 243.218 23.5059 242.672 23.8166 242.207C24.1274 241.742 24.5691 241.38 25.0858 241.166C25.6025 240.952 26.1712 240.896 26.7197 241.005C27.2683 241.114 27.7721 241.383 28.1676 241.778C28.5631 242.174 28.8324 242.678 28.9415 243.226C29.0506 243.774 28.9946 244.343 28.7806 244.859C28.5666 245.376 28.2041 245.817 27.739 246.128C27.274 246.439 26.7273 246.604 26.168 246.604C25.7964 246.605 25.4284 246.532 25.085 246.391C24.7416 246.249 24.4297 246.04 24.167 245.778C23.9043 245.515 23.696 245.203 23.5541 244.86C23.4122 244.517 23.3395 244.149 23.3401 243.777V243.777Z" fill="#020A4E"/>
<path d="M13.7095 243.777C13.7095 243.218 13.8754 242.672 14.1861 242.207C14.4969 241.742 14.9384 241.38 15.4552 241.166C15.9719 240.952 16.5405 240.896 17.0891 241.005C17.6377 241.114 18.1416 241.383 18.5371 241.778C18.9326 242.174 19.2019 242.678 19.311 243.226C19.4201 243.774 19.3641 244.343 19.1501 244.859C18.9361 245.376 18.5736 245.817 18.1085 246.128C17.6435 246.439 17.0968 246.604 16.5375 246.604C16.1659 246.605 15.7979 246.532 15.4545 246.391C15.1111 246.249 14.7991 246.04 14.5364 245.778C14.2737 245.515 14.0655 245.203 13.9236 244.86C13.7817 244.517 13.7089 244.149 13.7095 243.777V243.777Z" fill="#020A4E"/>
<path d="M4.07434 243.777C4.07435 243.218 4.24028 242.671 4.55122 242.206C4.86216 241.741 5.30417 241.379 5.82117 241.165C6.33817 240.951 6.90698 240.896 7.45567 241.005C8.00435 241.115 8.50819 241.384 8.9035 241.78C9.29881 242.176 9.56785 242.68 9.67645 243.229C9.78504 243.777 9.72837 244.346 9.51363 244.863C9.29888 245.379 8.93568 245.82 8.47003 246.13C8.00437 246.44 7.45711 246.605 6.8976 246.604C6.52645 246.604 6.15895 246.531 5.81611 246.389C5.47327 246.247 5.16192 246.039 4.89969 245.776C4.63746 245.514 4.4296 245.202 4.28799 244.859C4.14638 244.516 4.07374 244.148 4.07434 243.777Z" fill="#020A4E"/>
<path d="M187.083 253.502C187.083 252.943 187.249 252.396 187.56 251.931C187.87 251.467 188.312 251.104 188.829 250.89C189.346 250.676 189.914 250.62 190.463 250.729C191.011 250.838 191.515 251.108 191.911 251.503C192.306 251.898 192.575 252.402 192.685 252.951C192.794 253.499 192.738 254.067 192.524 254.584C192.31 255.1 191.947 255.542 191.482 255.853C191.017 256.163 190.47 256.329 189.911 256.329C189.539 256.33 189.171 256.257 188.828 256.115C188.485 255.973 188.173 255.765 187.91 255.502C187.647 255.24 187.439 254.928 187.297 254.585C187.155 254.241 187.083 253.873 187.083 253.502V253.502Z" fill="#020A4E"/>
<path d="M177.448 253.502C177.448 252.943 177.614 252.396 177.925 251.931C178.235 251.467 178.677 251.104 179.194 250.89C179.71 250.676 180.279 250.62 180.828 250.729C181.376 250.838 181.88 251.108 182.275 251.503C182.671 251.898 182.94 252.402 183.049 252.951C183.159 253.499 183.103 254.067 182.889 254.584C182.674 255.1 182.312 255.542 181.847 255.853C181.382 256.163 180.835 256.329 180.276 256.329C179.526 256.329 178.806 256.031 178.276 255.501C177.746 254.971 177.448 254.252 177.448 253.502Z" fill="#020A4E"/>
<path d="M167.817 253.502C167.817 252.943 167.983 252.396 168.294 251.931C168.605 251.467 169.046 251.104 169.563 250.89C170.08 250.676 170.648 250.62 171.197 250.729C171.745 250.838 172.249 251.108 172.645 251.503C173.04 251.898 173.31 252.402 173.419 252.951C173.528 253.499 173.472 254.067 173.258 254.584C173.044 255.1 172.681 255.542 172.216 255.853C171.751 256.163 171.204 256.329 170.645 256.329C169.895 256.329 169.176 256.031 168.646 255.501C168.115 254.971 167.817 254.252 167.817 253.502Z" fill="#020A4E"/>
<path d="M158.187 253.502C158.187 252.943 158.353 252.396 158.663 251.931C158.974 251.467 159.416 251.104 159.932 250.89C160.449 250.676 161.018 250.62 161.566 250.729C162.115 250.838 162.619 251.108 163.014 251.503C163.41 251.898 163.679 252.402 163.788 252.951C163.897 253.499 163.841 254.067 163.627 254.584C163.413 255.1 163.051 255.542 162.586 255.853C162.121 256.163 161.574 256.329 161.015 256.329C160.265 256.329 159.545 256.031 159.015 255.501C158.485 254.971 158.187 254.252 158.187 253.502Z" fill="#020A4E"/>
<path d="M148.556 253.502C148.556 252.943 148.722 252.396 149.033 251.931C149.343 251.467 149.785 251.104 150.302 250.89C150.818 250.676 151.387 250.62 151.936 250.729C152.484 250.838 152.988 251.108 153.384 251.503C153.779 251.898 154.048 252.402 154.158 252.951C154.267 253.499 154.211 254.067 153.997 254.584C153.783 255.1 153.42 255.542 152.955 255.853C152.49 256.163 151.943 256.329 151.384 256.329C151.012 256.33 150.644 256.257 150.301 256.115C149.958 255.973 149.646 255.765 149.383 255.502C149.12 255.24 148.912 254.928 148.77 254.585C148.628 254.241 148.555 253.873 148.556 253.502V253.502Z" fill="#020A4E"/>
<path d="M138.921 253.502C138.921 252.943 139.087 252.396 139.397 251.931C139.708 251.467 140.15 251.104 140.667 250.89C141.183 250.676 141.752 250.62 142.301 250.729C142.849 250.838 143.353 251.108 143.748 251.503C144.144 251.898 144.413 252.402 144.522 252.951C144.632 253.499 144.575 254.067 144.361 254.584C144.147 255.1 143.785 255.542 143.32 255.853C142.855 256.163 142.308 256.329 141.749 256.329C140.999 256.329 140.28 256.031 139.749 255.501C139.219 254.971 138.921 254.252 138.921 253.502Z" fill="#020A4E"/>
<path d="M129.29 253.502C129.29 252.943 129.456 252.396 129.767 251.931C130.078 251.467 130.519 251.104 131.036 250.89C131.553 250.676 132.121 250.62 132.67 250.729C133.218 250.838 133.722 251.108 134.118 251.503C134.513 251.898 134.783 252.402 134.892 252.951C135.001 253.499 134.945 254.067 134.731 254.584C134.517 255.1 134.154 255.542 133.689 255.853C133.224 256.163 132.677 256.329 132.118 256.329C131.368 256.329 130.649 256.031 130.119 255.501C129.588 254.971 129.29 254.252 129.29 253.502Z" fill="#020A4E"/>
<path d="M119.678 253.502C119.678 252.943 119.844 252.396 120.155 251.931C120.465 251.467 120.907 251.104 121.424 250.89C121.941 250.676 122.509 250.62 123.058 250.729C123.606 250.838 124.11 251.108 124.506 251.503C124.901 251.898 125.171 252.402 125.28 252.951C125.389 253.499 125.333 254.067 125.119 254.584C124.905 255.1 124.542 255.542 124.077 255.853C123.612 256.163 123.065 256.329 122.506 256.329C121.756 256.329 121.037 256.031 120.506 255.501C119.976 254.971 119.678 254.252 119.678 253.502Z" fill="#020A4E"/>
<path d="M110.006 253.502C110.006 252.943 110.172 252.396 110.483 251.931C110.794 251.467 111.235 251.104 111.752 250.89C112.269 250.676 112.837 250.62 113.386 250.729C113.934 250.838 114.438 251.108 114.834 251.503C115.229 251.898 115.499 252.402 115.608 252.951C115.717 253.499 115.661 254.067 115.447 254.584C115.233 255.1 114.87 255.542 114.405 255.853C113.94 256.163 113.393 256.329 112.834 256.329C112.084 256.329 111.365 256.031 110.834 255.501C110.304 254.971 110.006 254.252 110.006 253.502Z" fill="#020A4E"/>
<path d="M100.394 253.502C100.394 252.943 100.56 252.396 100.871 251.931C101.181 251.467 101.623 251.104 102.14 250.89C102.656 250.676 103.225 250.62 103.774 250.729C104.322 250.838 104.826 251.108 105.222 251.503C105.617 251.898 105.886 252.402 105.995 252.951C106.105 253.499 106.049 254.067 105.835 254.584C105.621 255.1 105.258 255.542 104.793 255.853C104.328 256.163 103.781 256.329 103.222 256.329C102.472 256.329 101.753 256.031 101.222 255.501C100.692 254.971 100.394 254.252 100.394 253.502Z" fill="#020A4E"/>
<path d="M90.7633 253.502C90.7633 252.943 90.9292 252.396 91.24 251.931C91.5507 251.467 91.9923 251.104 92.509 250.89C93.0257 250.676 93.5944 250.62 94.1429 250.729C94.6915 250.838 95.1954 251.108 95.5909 251.503C95.9864 251.898 96.2557 252.402 96.3648 252.951C96.474 253.499 96.418 254.067 96.2039 254.584C95.9899 255.1 95.6274 255.542 95.1624 255.853C94.6973 256.163 94.1506 256.329 93.5913 256.329C92.8413 256.329 92.1219 256.031 91.5916 255.501C91.0612 254.971 90.7633 254.252 90.7633 253.502Z" fill="#020A4E"/>
<path d="M81.1329 253.502C81.1329 252.943 81.2987 252.396 81.6095 251.931C81.9202 251.467 82.3619 251.104 82.8786 250.89C83.3954 250.676 83.964 250.62 84.5126 250.729C85.0611 250.838 85.565 251.108 85.9605 251.503C86.356 251.898 86.6252 252.402 86.7344 252.951C86.8435 253.499 86.7875 254.067 86.5735 254.584C86.3594 255.1 85.9969 255.542 85.5319 255.853C85.0668 256.163 84.5201 256.329 83.9608 256.329C83.2108 256.329 82.4915 256.031 81.9612 255.501C81.4309 254.971 81.1329 254.252 81.1329 253.502V253.502Z" fill="#020A4E"/>
<path d="M71.4976 253.502C71.4976 252.943 71.6635 252.396 71.9742 251.931C72.2849 251.467 72.7266 251.104 73.2434 250.89C73.7601 250.676 74.3286 250.62 74.8772 250.729C75.4258 250.838 75.9297 251.108 76.3251 251.503C76.7206 251.898 76.99 252.402 77.0991 252.951C77.2082 253.499 77.1522 254.067 76.9382 254.584C76.7242 255.1 76.3617 255.542 75.8966 255.853C75.4316 256.163 74.8848 256.329 74.3255 256.329C73.5755 256.329 72.8563 256.031 72.3259 255.501C71.7956 254.971 71.4976 254.252 71.4976 253.502Z" fill="#020A4E"/>
<path d="M61.8671 253.502C61.8671 252.943 62.033 252.396 62.3437 251.931C62.6545 251.467 63.096 251.104 63.6128 250.89C64.1295 250.676 64.6981 250.62 65.2467 250.729C65.7953 250.838 66.2992 251.108 66.6946 251.503C67.0901 251.898 67.3595 252.402 67.4686 252.951C67.5777 253.499 67.5217 254.067 67.3077 254.584C67.0937 255.1 66.7312 255.542 66.2661 255.853C65.8011 256.163 65.2544 256.329 64.695 256.329C63.945 256.329 63.2257 256.031 62.6953 255.501C62.165 254.971 61.8671 254.252 61.8671 253.502V253.502Z" fill="#020A4E"/>
<path d="M52.2366 253.502C52.2366 252.943 52.4024 252.396 52.7131 251.931C53.0238 251.467 53.4655 251.104 53.9823 250.89C54.499 250.676 55.0676 250.62 55.6162 250.729C56.1648 250.838 56.6686 251.108 57.064 251.503C57.4595 251.898 57.7289 252.402 57.838 252.951C57.9471 253.499 57.8911 254.067 57.6771 254.584C57.4631 255.1 57.1006 255.542 56.6355 255.853C56.1705 256.163 55.6238 256.329 55.0644 256.329C54.3144 256.329 53.5952 256.031 53.0648 255.501C52.5345 254.971 52.2366 254.252 52.2366 253.502V253.502Z" fill="#020A4E"/>
<path d="M42.6058 253.502C42.6058 252.943 42.7718 252.396 43.0825 251.931C43.3932 251.467 43.8349 251.104 44.3517 250.89C44.8684 250.676 45.4369 250.62 45.9855 250.729C46.534 250.838 47.0379 251.108 47.4334 251.503C47.8289 251.898 48.0983 252.402 48.2074 252.951C48.3165 253.499 48.2605 254.067 48.0465 254.584C47.8324 255.1 47.4699 255.542 47.0049 255.853C46.5398 256.163 45.9931 256.329 45.4338 256.329C45.0623 256.33 44.6942 256.257 44.3509 256.115C44.0075 255.973 43.6955 255.765 43.4328 255.502C43.17 255.24 42.9618 254.928 42.8199 254.585C42.678 254.241 42.6052 253.873 42.6058 253.502V253.502Z" fill="#020A4E"/>
<path d="M32.9706 253.502C32.9706 252.943 33.1364 252.396 33.4472 251.931C33.7579 251.467 34.1996 251.104 34.7163 250.89C35.2331 250.676 35.8017 250.62 36.3503 250.729C36.8988 250.838 37.4027 251.108 37.7982 251.503C38.1937 251.898 38.4631 252.402 38.5722 252.951C38.6813 253.499 38.6253 254.067 38.4113 254.584C38.1972 255.1 37.8347 255.542 37.3697 255.853C36.9047 256.163 36.3578 256.329 35.7985 256.329C35.0485 256.329 34.3292 256.031 33.7989 255.501C33.2686 254.971 32.9706 254.252 32.9706 253.502V253.502Z" fill="#020A4E"/>
<path d="M23.3401 253.502C23.3401 252.943 23.5059 252.396 23.8166 251.931C24.1274 251.467 24.5691 251.104 25.0858 250.89C25.6025 250.676 26.1712 250.62 26.7197 250.729C27.2683 250.838 27.7721 251.108 28.1676 251.503C28.5631 251.898 28.8324 252.402 28.9415 252.951C29.0506 253.499 28.9946 254.067 28.7806 254.584C28.5666 255.1 28.2041 255.542 27.739 255.853C27.274 256.163 26.7273 256.329 26.168 256.329C25.4179 256.329 24.6987 256.031 24.1684 255.501C23.638 254.971 23.3401 254.252 23.3401 253.502V253.502Z" fill="#020A4E"/>
<path d="M13.7095 253.502C13.7095 252.943 13.8754 252.396 14.1861 251.931C14.4969 251.467 14.9384 251.104 15.4552 250.89C15.9719 250.676 16.5405 250.62 17.0891 250.729C17.6377 250.838 18.1416 251.108 18.5371 251.503C18.9325 251.898 19.2019 252.402 19.311 252.951C19.4201 253.499 19.3641 254.067 19.1501 254.584C18.9361 255.1 18.5736 255.542 18.1085 255.853C17.6435 256.163 17.0968 256.329 16.5375 256.329C15.7874 256.329 15.0681 256.031 14.5377 255.501C14.0074 254.971 13.7095 254.252 13.7095 253.502Z" fill="#020A4E"/>
<path d="M4.07434 253.502C4.07435 252.943 4.24028 252.396 4.55122 251.931C4.86216 251.466 5.30417 251.104 5.82117 250.89C6.33817 250.676 6.90698 250.62 7.45567 250.73C8.00435 250.839 8.50819 251.109 8.9035 251.505C9.29881 251.901 9.56785 252.405 9.67645 252.953C9.78504 253.502 9.72837 254.071 9.51363 254.587C9.29888 255.104 8.93568 255.545 8.47003 255.855C8.00437 256.165 7.45711 256.33 6.8976 256.329C6.52645 256.329 6.15895 256.256 5.81611 256.114C5.47327 255.972 5.16192 255.763 4.89969 255.501C4.63746 255.238 4.4296 254.927 4.28799 254.584C4.14638 254.241 4.07374 253.873 4.07434 253.502V253.502Z" fill="#020A4E"/>
<path d="M196.714 263.226C196.714 262.667 196.88 262.12 197.19 261.655C197.501 261.19 197.943 260.828 198.459 260.614C198.976 260.4 199.545 260.344 200.093 260.453C200.642 260.562 201.146 260.831 201.541 261.227C201.937 261.622 202.206 262.126 202.315 262.674C202.424 263.223 202.368 263.791 202.154 264.308C201.94 264.824 201.578 265.266 201.113 265.576C200.648 265.887 200.101 266.053 199.542 266.053C198.792 266.053 198.072 265.755 197.542 265.225C197.012 264.695 196.714 263.975 196.714 263.226Z" fill="#020A4E"/>
<path d="M187.083 263.226C187.083 262.667 187.249 262.12 187.56 261.655C187.87 261.19 188.312 260.828 188.829 260.614C189.346 260.4 189.914 260.344 190.463 260.453C191.011 260.562 191.515 260.831 191.911 261.227C192.306 261.622 192.575 262.126 192.685 262.674C192.794 263.223 192.738 263.791 192.524 264.308C192.31 264.824 191.947 265.266 191.482 265.576C191.017 265.887 190.47 266.053 189.911 266.053C189.539 266.053 189.171 265.981 188.828 265.839C188.485 265.697 188.173 265.489 187.91 265.226C187.647 264.963 187.439 264.652 187.297 264.308C187.155 263.965 187.083 263.597 187.083 263.226V263.226Z" fill="#020A4E"/>
<path d="M180.276 260.399C181.838 260.399 183.104 261.664 183.104 263.226C183.104 264.787 181.838 266.053 180.276 266.053C178.714 266.053 177.448 264.787 177.448 263.226C177.448 261.664 178.714 260.399 180.276 260.399Z" fill="#020A4E"/>
<path d="M170.645 260.399C172.207 260.399 173.473 261.664 173.473 263.226C173.473 264.787 172.207 266.053 170.645 266.053C169.083 266.053 167.817 264.787 167.817 263.226C167.817 261.664 169.083 260.399 170.645 260.399Z" fill="#020A4E"/>
<path d="M158.187 263.226C158.187 262.667 158.353 262.12 158.663 261.655C158.974 261.19 159.416 260.828 159.932 260.614C160.449 260.4 161.018 260.344 161.566 260.453C162.115 260.562 162.619 260.831 163.014 261.227C163.41 261.622 163.679 262.126 163.788 262.674C163.897 263.223 163.841 263.791 163.627 264.308C163.413 264.824 163.051 265.266 162.586 265.576C162.121 265.887 161.574 266.053 161.015 266.053C160.265 266.053 159.545 265.755 159.015 265.225C158.485 264.695 158.187 263.975 158.187 263.226Z" fill="#020A4E"/>
<path d="M148.556 263.226C148.556 262.667 148.722 262.12 149.033 261.655C149.343 261.19 149.785 260.828 150.302 260.614C150.818 260.4 151.387 260.344 151.936 260.453C152.484 260.562 152.988 260.831 153.384 261.227C153.779 261.622 154.048 262.126 154.158 262.674C154.267 263.223 154.211 263.791 153.997 264.308C153.783 264.824 153.42 265.266 152.955 265.576C152.49 265.887 151.943 266.053 151.384 266.053C151.012 266.053 150.644 265.981 150.301 265.839C149.958 265.697 149.646 265.489 149.383 265.226C149.12 264.963 148.912 264.652 148.77 264.308C148.628 263.965 148.555 263.597 148.556 263.226V263.226Z" fill="#020A4E"/>
<path d="M141.749 260.399C143.311 260.399 144.577 261.664 144.577 263.226C144.577 264.787 143.311 266.053 141.749 266.053C140.187 266.053 138.921 264.787 138.921 263.226C138.921 261.664 140.187 260.399 141.749 260.399Z" fill="#020A4E"/>
<path d="M132.118 260.399C133.68 260.399 134.946 261.664 134.946 263.226C134.946 264.787 133.68 266.053 132.118 266.053C130.556 266.053 129.29 264.787 129.29 263.226C129.29 261.664 130.556 260.399 132.118 260.399Z" fill="#020A4E"/>
<path d="M119.678 263.226C119.678 262.667 119.844 262.12 120.155 261.655C120.465 261.19 120.907 260.828 121.424 260.614C121.941 260.4 122.509 260.344 123.058 260.453C123.606 260.562 124.11 260.831 124.506 261.227C124.901 261.622 125.171 262.126 125.28 262.674C125.389 263.223 125.333 263.791 125.119 264.308C124.905 264.824 124.542 265.266 124.077 265.576C123.612 265.887 123.065 266.053 122.506 266.053C121.756 266.053 121.037 265.755 120.506 265.225C119.976 264.695 119.678 263.975 119.678 263.226Z" fill="#020A4E"/>
<path d="M110.006 263.226C110.006 262.667 110.172 262.12 110.483 261.655C110.794 261.19 111.235 260.828 111.752 260.614C112.269 260.4 112.837 260.344 113.386 260.453C113.934 260.562 114.438 260.831 114.834 261.227C115.229 261.622 115.499 262.126 115.608 262.674C115.717 263.223 115.661 263.791 115.447 264.308C115.233 264.824 114.87 265.266 114.405 265.576C113.94 265.887 113.393 266.053 112.834 266.053C112.084 266.053 111.365 265.755 110.834 265.225C110.304 264.695 110.006 263.975 110.006 263.226Z" fill="#020A4E"/>
<path d="M103.222 260.399C104.784 260.399 106.05 261.664 106.05 263.226C106.05 264.787 104.784 266.053 103.222 266.053C101.66 266.053 100.394 264.787 100.394 263.226C100.394 261.664 101.66 260.399 103.222 260.399Z" fill="#020A4E"/>
<path d="M90.7633 263.226C90.7633 262.667 90.9292 262.12 91.24 261.655C91.5507 261.19 91.9923 260.828 92.509 260.614C93.0257 260.4 93.5944 260.344 94.1429 260.453C94.6915 260.562 95.1954 260.831 95.5909 261.227C95.9864 261.622 96.2557 262.126 96.3648 262.674C96.474 263.223 96.418 263.791 96.2039 264.308C95.9899 264.824 95.6274 265.266 95.1624 265.576C94.6973 265.887 94.1506 266.053 93.5913 266.053C92.8413 266.053 92.1219 265.755 91.5916 265.225C91.0612 264.695 90.7633 263.975 90.7633 263.226Z" fill="#020A4E"/>
<path d="M81.1329 263.226C81.1329 262.667 81.2987 262.12 81.6095 261.655C81.9202 261.19 82.3619 260.828 82.8786 260.614C83.3954 260.4 83.964 260.344 84.5126 260.453C85.0611 260.562 85.565 260.831 85.9605 261.227C86.356 261.622 86.6252 262.126 86.7344 262.674C86.8435 263.223 86.7875 263.791 86.5735 264.308C86.3594 264.824 85.9969 265.266 85.5319 265.576C85.0668 265.887 84.5201 266.053 83.9608 266.053C83.2108 266.053 82.4915 265.755 81.9612 265.225C81.4309 264.695 81.1329 263.975 81.1329 263.226V263.226Z" fill="#020A4E"/>
<path d="M74.3255 260.399C75.8874 260.399 77.1534 261.664 77.1534 263.226C77.1534 264.787 75.8874 266.053 74.3255 266.053C72.7637 266.053 71.4976 264.787 71.4976 263.226C71.4976 261.664 72.7637 260.399 74.3255 260.399Z" fill="#020A4E"/>
<path d="M64.695 260.399C66.2569 260.399 67.5229 261.664 67.5229 263.226C67.5229 264.787 66.2569 266.053 64.695 266.053C63.1332 266.053 61.8671 264.787 61.8671 263.226C61.8671 261.664 63.1332 260.399 64.695 260.399Z" fill="#020A4E"/>
<path d="M52.2366 263.226C52.2366 262.667 52.4024 262.12 52.7131 261.655C53.0238 261.19 53.4655 260.828 53.9823 260.614C54.499 260.4 55.0676 260.344 55.6162 260.453C56.1648 260.562 56.6686 260.831 57.064 261.227C57.4595 261.622 57.7289 262.126 57.838 262.674C57.9471 263.223 57.8911 263.791 57.6771 264.308C57.4631 264.824 57.1006 265.266 56.6355 265.576C56.1705 265.887 55.6238 266.053 55.0644 266.053C54.3144 266.053 53.5952 265.755 53.0648 265.225C52.5345 264.695 52.2366 263.975 52.2366 263.226V263.226Z" fill="#020A4E"/>
<path d="M42.6058 263.226C42.6058 262.667 42.7718 262.12 43.0825 261.655C43.3932 261.19 43.8349 260.828 44.3517 260.614C44.8684 260.4 45.4369 260.344 45.9855 260.453C46.534 260.562 47.0379 260.831 47.4334 261.227C47.8289 261.622 48.0983 262.126 48.2074 262.674C48.3165 263.223 48.2605 263.791 48.0465 264.308C47.8324 264.824 47.4699 265.266 47.0049 265.576C46.5398 265.887 45.9931 266.053 45.4338 266.053C45.0623 266.053 44.6942 265.981 44.3509 265.839C44.0075 265.697 43.6955 265.489 43.4328 265.226C43.17 264.963 42.9618 264.652 42.8199 264.308C42.678 263.965 42.6052 263.597 42.6058 263.226V263.226Z" fill="#020A4E"/>
<path d="M35.7985 260.399C37.3603 260.399 38.6265 261.664 38.6265 263.226C38.6265 264.787 37.3603 266.053 35.7985 266.053C34.2367 266.053 32.9706 264.787 32.9706 263.226C32.9706 261.664 34.2367 260.399 35.7985 260.399Z" fill="#020A4E"/>
<path d="M26.168 260.399C27.7298 260.399 28.9959 261.664 28.9959 263.226C28.9959 264.787 27.7298 266.053 26.168 266.053C24.6061 266.053 23.3401 264.787 23.3401 263.226C23.3401 261.664 24.6061 260.399 26.168 260.399Z" fill="#020A4E"/>
<path d="M13.7095 263.226C13.7095 262.667 13.8754 262.12 14.1861 261.655C14.4969 261.19 14.9384 260.828 15.4552 260.614C15.9719 260.4 16.5405 260.344 17.0891 260.453C17.6377 260.562 18.1416 260.831 18.5371 261.227C18.9325 261.622 19.2019 262.126 19.311 262.674C19.4201 263.223 19.3641 263.791 19.1501 264.308C18.9361 264.824 18.5736 265.266 18.1085 265.576C17.6435 265.887 17.0968 266.053 16.5375 266.053C15.7874 266.053 15.0681 265.755 14.5377 265.225C14.0074 264.695 13.7095 263.975 13.7095 263.226Z" fill="#020A4E"/>
<path d="M4.07434 263.226C4.07435 262.666 4.24028 262.12 4.55122 261.655C4.86216 261.19 5.30417 260.827 5.82117 260.613C6.33817 260.4 6.90698 260.344 7.45567 260.453C8.00435 260.563 8.50819 260.832 8.9035 261.228C9.29881 261.624 9.56785 262.128 9.67645 262.677C9.78504 263.226 9.72837 263.794 9.51363 264.311C9.29888 264.827 8.93568 265.268 8.47003 265.579C8.00437 265.889 7.45711 266.054 6.8976 266.053C6.52645 266.053 6.15895 265.98 5.81611 265.837C5.47327 265.695 5.16192 265.487 4.89969 265.224C4.63746 264.962 4.4296 264.65 4.28799 264.307C4.14638 263.964 4.07374 263.597 4.07434 263.226Z" fill="#020A4E"/>
<path d="M209.172 270.123C210.734 270.123 212 271.389 212 272.95C212 274.512 210.734 275.777 209.172 275.777C207.61 275.777 206.344 274.512 206.344 272.95C206.344 271.389 207.61 270.123 209.172 270.123Z" fill="#020A4E"/>
<path d="M196.714 272.941C196.714 272.381 196.88 271.835 197.19 271.37C197.501 270.905 197.943 270.543 198.459 270.329C198.976 270.115 199.545 270.059 200.093 270.168C200.642 270.277 201.146 270.546 201.541 270.942C201.937 271.337 202.206 271.841 202.315 272.389C202.424 272.937 202.368 273.506 202.154 274.022C201.94 274.539 201.578 274.981 201.113 275.291C200.648 275.602 200.101 275.768 199.542 275.768C198.792 275.768 198.072 275.47 197.542 274.94C197.012 274.409 196.714 273.69 196.714 272.941Z" fill="#020A4E"/>
<path d="M187.083 272.941C187.083 272.381 187.249 271.835 187.56 271.37C187.87 270.905 188.312 270.543 188.829 270.329C189.346 270.115 189.914 270.059 190.463 270.168C191.011 270.277 191.515 270.546 191.911 270.942C192.306 271.337 192.575 271.841 192.685 272.389C192.794 272.937 192.738 273.506 192.524 274.022C192.31 274.539 191.947 274.98 191.482 275.291C191.017 275.602 190.47 275.768 189.911 275.768C189.539 275.768 189.171 275.695 188.828 275.554C188.485 275.412 188.173 275.204 187.91 274.941C187.647 274.678 187.439 274.366 187.297 274.023C187.155 273.68 187.083 273.312 187.083 272.941V272.941Z" fill="#020A4E"/>
<path d="M180.276 270.123C181.838 270.123 183.104 271.389 183.104 272.95C183.104 274.512 181.838 275.777 180.276 275.777C178.714 275.777 177.448 274.512 177.448 272.95C177.448 271.389 178.714 270.123 180.276 270.123Z" fill="#020A4E"/>
<path d="M170.645 270.123C172.207 270.123 173.473 271.389 173.473 272.95C173.473 274.512 172.207 275.777 170.645 275.777C169.083 275.777 167.817 274.512 167.817 272.95C167.817 271.389 169.083 270.123 170.645 270.123Z" fill="#020A4E"/>
<path d="M158.187 272.941C158.187 272.381 158.353 271.835 158.663 271.37C158.974 270.905 159.416 270.543 159.932 270.329C160.449 270.115 161.018 270.059 161.566 270.168C162.115 270.277 162.619 270.546 163.014 270.942C163.41 271.337 163.679 271.841 163.788 272.389C163.897 272.937 163.841 273.506 163.627 274.022C163.413 274.539 163.051 274.981 162.586 275.291C162.121 275.602 161.574 275.768 161.015 275.768C160.265 275.768 159.545 275.47 159.015 274.94C158.485 274.409 158.187 273.69 158.187 272.941Z" fill="#020A4E"/>
<path d="M148.556 272.941C148.556 272.381 148.722 271.835 149.033 271.37C149.343 270.905 149.785 270.543 150.302 270.329C150.818 270.115 151.387 270.059 151.936 270.168C152.484 270.277 152.988 270.546 153.384 270.942C153.779 271.337 154.048 271.841 154.158 272.389C154.267 272.937 154.211 273.506 153.997 274.022C153.783 274.539 153.42 274.98 152.955 275.291C152.49 275.602 151.943 275.768 151.384 275.768C151.012 275.768 150.644 275.695 150.301 275.554C149.958 275.412 149.646 275.204 149.383 274.941C149.12 274.678 148.912 274.366 148.77 274.023C148.628 273.68 148.555 273.312 148.556 272.941V272.941Z" fill="#020A4E"/>
<path d="M141.749 270.123C143.311 270.123 144.577 271.389 144.577 272.95C144.577 274.512 143.311 275.777 141.749 275.777C140.187 275.777 138.921 274.512 138.921 272.95C138.921 271.389 140.187 270.123 141.749 270.123Z" fill="#020A4E"/>
<path d="M132.118 270.123C133.68 270.123 134.946 271.389 134.946 272.95C134.946 274.512 133.68 275.777 132.118 275.777C130.556 275.777 129.29 274.512 129.29 272.95C129.29 271.389 130.556 270.123 132.118 270.123Z" fill="#020A4E"/>
<path d="M119.678 272.941C119.678 272.381 119.844 271.835 120.155 271.37C120.465 270.905 120.907 270.543 121.424 270.329C121.941 270.115 122.509 270.059 123.058 270.168C123.606 270.277 124.11 270.546 124.506 270.942C124.901 271.337 125.171 271.841 125.28 272.389C125.389 272.937 125.333 273.506 125.119 274.022C124.905 274.539 124.542 274.981 124.077 275.291C123.612 275.602 123.065 275.768 122.506 275.768C121.756 275.768 121.037 275.47 120.506 274.94C119.976 274.409 119.678 273.69 119.678 272.941Z" fill="#020A4E"/>
<path d="M110.006 272.941C110.006 272.381 110.172 271.835 110.483 271.37C110.794 270.905 111.235 270.543 111.752 270.329C112.269 270.115 112.837 270.059 113.386 270.168C113.934 270.277 114.438 270.546 114.834 270.942C115.229 271.337 115.499 271.841 115.608 272.389C115.717 272.937 115.661 273.506 115.447 274.022C115.233 274.539 114.87 274.981 114.405 275.291C113.94 275.602 113.393 275.768 112.834 275.768C112.084 275.768 111.365 275.47 110.834 274.94C110.304 274.409 110.006 273.69 110.006 272.941Z" fill="#020A4E"/>
<path d="M103.222 270.123C104.784 270.123 106.05 271.389 106.05 272.95C106.05 274.512 104.784 275.777 103.222 275.777C101.66 275.777 100.394 274.512 100.394 272.95C100.394 271.389 101.66 270.123 103.222 270.123Z" fill="#020A4E"/>
<path d="M90.7633 272.941C90.7633 272.381 90.9292 271.835 91.24 271.37C91.5507 270.905 91.9923 270.543 92.509 270.329C93.0257 270.115 93.5944 270.059 94.1429 270.168C94.6915 270.277 95.1954 270.546 95.5909 270.942C95.9864 271.337 96.2557 271.841 96.3648 272.389C96.474 272.937 96.418 273.506 96.2039 274.022C95.9899 274.539 95.6274 274.981 95.1624 275.291C94.6973 275.602 94.1506 275.768 93.5913 275.768C92.8413 275.768 92.1219 275.47 91.5916 274.94C91.0612 274.409 90.7633 273.69 90.7633 272.941Z" fill="#020A4E"/>
<path d="M81.1329 272.941C81.1329 272.381 81.2987 271.835 81.6095 271.37C81.9202 270.905 82.3619 270.543 82.8786 270.329C83.3954 270.115 83.964 270.059 84.5126 270.168C85.0611 270.277 85.565 270.546 85.9605 270.942C86.356 271.337 86.6252 271.841 86.7344 272.389C86.8435 272.937 86.7875 273.506 86.5735 274.022C86.3594 274.539 85.9969 274.981 85.5319 275.291C85.0668 275.602 84.5201 275.768 83.9608 275.768C83.2108 275.768 82.4915 275.47 81.9612 274.94C81.4309 274.409 81.1329 273.69 81.1329 272.941V272.941Z" fill="#020A4E"/>
<path d="M74.3255 270.123C75.8874 270.123 77.1534 271.389 77.1534 272.95C77.1534 274.512 75.8874 275.777 74.3255 275.777C72.7637 275.777 71.4976 274.512 71.4976 272.95C71.4976 271.389 72.7637 270.123 74.3255 270.123Z" fill="#020A4E"/>
<path d="M64.695 270.123C66.2569 270.123 67.5229 271.389 67.5229 272.95C67.5229 274.512 66.2569 275.777 64.695 275.777C63.1332 275.777 61.8671 274.512 61.8671 272.95C61.8671 271.389 63.1332 270.123 64.695 270.123Z" fill="#020A4E"/>
<path d="M52.2366 272.941C52.2366 272.381 52.4024 271.835 52.7131 271.37C53.0238 270.905 53.4655 270.543 53.9823 270.329C54.499 270.115 55.0676 270.059 55.6162 270.168C56.1648 270.277 56.6686 270.546 57.064 270.942C57.4595 271.337 57.7289 271.841 57.838 272.389C57.9471 272.937 57.8911 273.506 57.6771 274.022C57.4631 274.539 57.1006 274.981 56.6355 275.291C56.1705 275.602 55.6238 275.768 55.0644 275.768C54.3144 275.768 53.5952 275.47 53.0648 274.94C52.5345 274.409 52.2366 273.69 52.2366 272.941V272.941Z" fill="#020A4E"/>
<path d="M42.6058 272.941C42.6058 272.381 42.7718 271.835 43.0825 271.37C43.3932 270.905 43.8349 270.543 44.3517 270.329C44.8684 270.115 45.4369 270.059 45.9855 270.168C46.534 270.277 47.0379 270.546 47.4334 270.942C47.8289 271.337 48.0983 271.841 48.2074 272.389C48.3165 272.937 48.2605 273.506 48.0465 274.022C47.8324 274.539 47.4699 274.98 47.0049 275.291C46.5398 275.602 45.9931 275.768 45.4338 275.768C45.0623 275.768 44.6942 275.695 44.3509 275.554C44.0075 275.412 43.6955 275.204 43.4328 274.941C43.17 274.678 42.9618 274.366 42.8199 274.023C42.678 273.68 42.6052 273.312 42.6058 272.941V272.941Z" fill="#020A4E"/>
<path d="M35.7985 270.123C37.3603 270.123 38.6265 271.389 38.6265 272.95C38.6265 274.512 37.3603 275.777 35.7985 275.777C34.2367 275.777 32.9706 274.512 32.9706 272.95C32.9706 271.389 34.2367 270.123 35.7985 270.123Z" fill="#020A4E"/>
<path d="M26.168 270.123C27.7298 270.123 28.9959 271.389 28.9959 272.95C28.9959 274.512 27.7298 275.777 26.168 275.777C24.6061 275.777 23.3401 274.512 23.3401 272.95C23.3401 271.389 24.6061 270.123 26.168 270.123Z" fill="#020A4E"/>
<path d="M13.7095 272.941C13.7095 272.381 13.8754 271.835 14.1861 271.37C14.4969 270.905 14.9384 270.543 15.4552 270.329C15.9719 270.115 16.5405 270.059 17.0891 270.168C17.6377 270.277 18.1416 270.546 18.5371 270.942C18.9325 271.337 19.2019 271.841 19.311 272.389C19.4201 272.937 19.3641 273.506 19.1501 274.022C18.9361 274.539 18.5736 274.981 18.1085 275.291C17.6435 275.602 17.0968 275.768 16.5375 275.768C15.7874 275.768 15.0681 275.47 14.5377 274.94C14.0074 274.409 13.7095 273.69 13.7095 272.941Z" fill="#020A4E"/>
<path d="M4.07434 272.941C4.07435 272.381 4.24028 271.834 4.55122 271.369C4.86216 270.904 5.30417 270.542 5.82117 270.328C6.33817 270.114 6.90698 270.059 7.45567 270.168C8.00435 270.278 8.50819 270.547 8.9035 270.943C9.29881 271.339 9.56785 271.843 9.67645 272.392C9.78504 272.941 9.72837 273.509 9.51363 274.026C9.29888 274.542 8.93568 274.983 8.47003 275.293C8.00437 275.603 7.45711 275.768 6.8976 275.768C6.52645 275.768 6.15895 275.694 5.81611 275.552C5.47327 275.41 5.16192 275.202 4.89969 274.939C4.63746 274.677 4.4296 274.365 4.28799 274.022C4.14638 273.679 4.07374 273.312 4.07434 272.941Z" fill="#020A4E"/>
<path d="M206.344 282.674C206.344 282.115 206.51 281.568 206.821 281.103C207.132 280.638 207.573 280.276 208.09 280.062C208.607 279.848 209.175 279.792 209.724 279.901C210.272 280.01 210.776 280.28 211.172 280.675C211.567 281.07 211.837 281.574 211.946 282.122C212.055 282.671 211.999 283.239 211.785 283.756C211.571 284.272 211.208 284.714 210.743 285.025C210.278 285.335 209.731 285.501 209.172 285.501C208.422 285.501 207.703 285.203 207.172 284.673C206.642 284.143 206.344 283.424 206.344 282.674V282.674Z" fill="#020A4E"/>
<path d="M196.714 282.674C196.714 282.115 196.88 281.568 197.19 281.103C197.501 280.638 197.943 280.276 198.459 280.062C198.976 279.848 199.545 279.792 200.093 279.901C200.642 280.01 201.146 280.28 201.541 280.675C201.937 281.07 202.206 281.574 202.315 282.122C202.424 282.671 202.368 283.239 202.154 283.756C201.94 284.272 201.578 284.714 201.113 285.025C200.648 285.335 200.101 285.501 199.542 285.501C198.792 285.501 198.072 285.203 197.542 284.673C197.012 284.143 196.714 283.424 196.714 282.674Z" fill="#020A4E"/>
<path d="M187.083 282.674C187.083 282.115 187.249 281.568 187.56 281.103C187.87 280.638 188.312 280.276 188.829 280.062C189.346 279.848 189.914 279.792 190.463 279.901C191.011 280.01 191.515 280.28 191.911 280.675C192.306 281.07 192.575 281.574 192.685 282.122C192.794 282.671 192.738 283.239 192.524 283.756C192.31 284.272 191.947 284.714 191.482 285.025C191.017 285.335 190.47 285.501 189.911 285.501C189.539 285.502 189.171 285.429 188.828 285.287C188.485 285.145 188.173 284.937 187.91 284.674C187.647 284.412 187.439 284.1 187.297 283.757C187.155 283.413 187.083 283.045 187.083 282.674V282.674Z" fill="#020A4E"/>
<path d="M177.448 282.674C177.448 282.115 177.614 281.568 177.925 281.103C178.235 280.638 178.677 280.276 179.194 280.062C179.71 279.848 180.279 279.792 180.828 279.901C181.376 280.01 181.88 280.28 182.275 280.675C182.671 281.07 182.94 281.574 183.049 282.122C183.159 282.671 183.103 283.239 182.889 283.756C182.674 284.272 182.312 284.714 181.847 285.025C181.382 285.335 180.835 285.501 180.276 285.501C179.526 285.501 178.806 285.203 178.276 284.673C177.746 284.143 177.448 283.424 177.448 282.674Z" fill="#020A4E"/>
<path d="M167.817 282.674C167.817 282.115 167.983 281.568 168.294 281.103C168.605 280.638 169.046 280.276 169.563 280.062C170.08 279.848 170.648 279.792 171.197 279.901C171.745 280.01 172.249 280.28 172.645 280.675C173.04 281.07 173.31 281.574 173.419 282.122C173.528 282.671 173.472 283.239 173.258 283.756C173.044 284.272 172.681 284.714 172.216 285.025C171.751 285.335 171.204 285.501 170.645 285.501C169.895 285.501 169.176 285.203 168.646 284.673C168.115 284.143 167.817 283.424 167.817 282.674Z" fill="#020A4E"/>
<path d="M158.187 282.674C158.187 282.115 158.353 281.568 158.663 281.103C158.974 280.638 159.416 280.276 159.932 280.062C160.449 279.848 161.018 279.792 161.566 279.901C162.115 280.01 162.619 280.28 163.014 280.675C163.41 281.07 163.679 281.574 163.788 282.122C163.897 282.671 163.841 283.239 163.627 283.756C163.413 284.272 163.051 284.714 162.586 285.025C162.121 285.335 161.574 285.501 161.015 285.501C160.265 285.501 159.545 285.203 159.015 284.673C158.485 284.143 158.187 283.424 158.187 282.674Z" fill="#020A4E"/>
<path d="M148.556 282.674C148.556 282.115 148.722 281.568 149.033 281.103C149.343 280.638 149.785 280.276 150.302 280.062C150.818 279.848 151.387 279.792 151.936 279.901C152.484 280.01 152.988 280.28 153.384 280.675C153.779 281.07 154.048 281.574 154.158 282.122C154.267 282.671 154.211 283.239 153.997 283.756C153.783 284.272 153.42 284.714 152.955 285.025C152.49 285.335 151.943 285.501 151.384 285.501C151.012 285.502 150.644 285.429 150.301 285.287C149.958 285.145 149.646 284.937 149.383 284.674C149.12 284.412 148.912 284.1 148.77 283.757C148.628 283.413 148.555 283.045 148.556 282.674V282.674Z" fill="#020A4E"/>
<path d="M138.921 282.674C138.921 282.115 139.087 281.568 139.397 281.103C139.708 280.638 140.15 280.276 140.667 280.062C141.183 279.848 141.752 279.792 142.301 279.901C142.849 280.01 143.353 280.28 143.748 280.675C144.144 281.07 144.413 281.574 144.522 282.122C144.632 282.671 144.575 283.239 144.361 283.756C144.147 284.272 143.785 284.714 143.32 285.025C142.855 285.335 142.308 285.501 141.749 285.501C140.999 285.501 140.28 285.203 139.749 284.673C139.219 284.143 138.921 283.424 138.921 282.674Z" fill="#020A4E"/>
<path d="M129.29 282.674C129.29 282.115 129.456 281.568 129.767 281.103C130.078 280.638 130.519 280.276 131.036 280.062C131.553 279.848 132.121 279.792 132.67 279.901C133.218 280.01 133.722 280.28 134.118 280.675C134.513 281.07 134.783 281.574 134.892 282.122C135.001 282.671 134.945 283.239 134.731 283.756C134.517 284.272 134.154 284.714 133.689 285.025C133.224 285.335 132.677 285.501 132.118 285.501C131.368 285.501 130.649 285.203 130.119 284.673C129.588 284.143 129.29 283.424 129.29 282.674Z" fill="#020A4E"/>
<path d="M119.678 282.674C119.678 282.115 119.844 281.568 120.155 281.103C120.465 280.638 120.907 280.276 121.424 280.062C121.941 279.848 122.509 279.792 123.058 279.901C123.606 280.01 124.11 280.28 124.506 280.675C124.901 281.07 125.171 281.574 125.28 282.122C125.389 282.671 125.333 283.239 125.119 283.756C124.905 284.272 124.542 284.714 124.077 285.025C123.612 285.335 123.065 285.501 122.506 285.501C121.756 285.501 121.037 285.203 120.506 284.673C119.976 284.143 119.678 283.424 119.678 282.674Z" fill="#020A4E"/>
<path d="M110.006 282.674C110.006 282.115 110.172 281.568 110.483 281.103C110.794 280.638 111.235 280.276 111.752 280.062C112.269 279.848 112.837 279.792 113.386 279.901C113.934 280.01 114.438 280.28 114.834 280.675C115.229 281.07 115.499 281.574 115.608 282.122C115.717 282.671 115.661 283.239 115.447 283.756C115.233 284.272 114.87 284.714 114.405 285.025C113.94 285.335 113.393 285.501 112.834 285.501C112.084 285.501 111.365 285.203 110.834 284.673C110.304 284.143 110.006 283.424 110.006 282.674Z" fill="#020A4E"/>
<path d="M100.394 282.674C100.394 282.115 100.56 281.568 100.871 281.103C101.181 280.638 101.623 280.276 102.14 280.062C102.656 279.848 103.225 279.792 103.774 279.901C104.322 280.01 104.826 280.28 105.222 280.675C105.617 281.07 105.886 281.574 105.995 282.122C106.105 282.671 106.049 283.239 105.835 283.756C105.621 284.272 105.258 284.714 104.793 285.025C104.328 285.335 103.781 285.501 103.222 285.501C102.472 285.501 101.753 285.203 101.222 284.673C100.692 284.143 100.394 283.424 100.394 282.674Z" fill="#020A4E"/>
<path d="M90.7633 282.674C90.7633 282.115 90.9292 281.568 91.24 281.103C91.5507 280.638 91.9923 280.276 92.509 280.062C93.0257 279.848 93.5944 279.792 94.1429 279.901C94.6915 280.01 95.1954 280.28 95.5909 280.675C95.9864 281.07 96.2557 281.574 96.3648 282.122C96.474 282.671 96.418 283.239 96.2039 283.756C95.9899 284.272 95.6274 284.714 95.1624 285.025C94.6973 285.335 94.1506 285.501 93.5913 285.501C92.8413 285.501 92.1219 285.203 91.5916 284.673C91.0612 284.143 90.7633 283.424 90.7633 282.674Z" fill="#020A4E"/>
<path d="M81.1329 282.674C81.1329 282.115 81.2987 281.568 81.6095 281.103C81.9202 280.638 82.3619 280.276 82.8786 280.062C83.3954 279.848 83.964 279.792 84.5126 279.901C85.0611 280.01 85.565 280.28 85.9605 280.675C86.356 281.07 86.6252 281.574 86.7344 282.122C86.8435 282.671 86.7875 283.239 86.5735 283.756C86.3594 284.272 85.9969 284.714 85.5319 285.025C85.0668 285.335 84.5201 285.501 83.9608 285.501C83.2108 285.501 82.4915 285.203 81.9612 284.673C81.4309 284.143 81.1329 283.424 81.1329 282.674V282.674Z" fill="#020A4E"/>
<path d="M71.4976 282.674C71.4976 282.115 71.6635 281.568 71.9742 281.103C72.2849 280.638 72.7266 280.276 73.2434 280.062C73.7601 279.848 74.3286 279.792 74.8772 279.901C75.4258 280.01 75.9297 280.28 76.3251 280.675C76.7206 281.07 76.99 281.574 77.0991 282.122C77.2082 282.671 77.1522 283.239 76.9382 283.756C76.7242 284.272 76.3617 284.714 75.8966 285.025C75.4316 285.335 74.8848 285.501 74.3255 285.501C73.5755 285.501 72.8563 285.203 72.3259 284.673C71.7956 284.143 71.4976 283.424 71.4976 282.674Z" fill="#020A4E"/>
<path d="M61.8671 282.674C61.8671 282.115 62.033 281.568 62.3437 281.103C62.6545 280.638 63.096 280.276 63.6128 280.062C64.1295 279.848 64.6981 279.792 65.2467 279.901C65.7953 280.01 66.2992 280.28 66.6946 280.675C67.0901 281.07 67.3595 281.574 67.4686 282.122C67.5777 282.671 67.5217 283.239 67.3077 283.756C67.0937 284.272 66.7312 284.714 66.2661 285.025C65.8011 285.335 65.2544 285.501 64.695 285.501C63.945 285.501 63.2257 285.203 62.6953 284.673C62.165 284.143 61.8671 283.424 61.8671 282.674V282.674Z" fill="#020A4E"/>
<path d="M52.2366 282.674C52.2366 282.115 52.4024 281.568 52.7131 281.103C53.0238 280.638 53.4655 280.276 53.9823 280.062C54.499 279.848 55.0676 279.792 55.6162 279.901C56.1648 280.01 56.6686 280.28 57.064 280.675C57.4595 281.07 57.7289 281.574 57.838 282.122C57.9471 282.671 57.8911 283.239 57.6771 283.756C57.4631 284.272 57.1006 284.714 56.6355 285.025C56.1705 285.335 55.6238 285.501 55.0644 285.501C54.3144 285.501 53.5952 285.203 53.0648 284.673C52.5345 284.143 52.2366 283.424 52.2366 282.674V282.674Z" fill="#020A4E"/>
<path d="M42.6058 282.674C42.6058 282.115 42.7718 281.568 43.0825 281.103C43.3932 280.638 43.8349 280.276 44.3517 280.062C44.8684 279.848 45.4369 279.792 45.9855 279.901C46.534 280.01 47.0379 280.28 47.4334 280.675C47.8289 281.07 48.0983 281.574 48.2074 282.122C48.3165 282.671 48.2605 283.239 48.0465 283.756C47.8324 284.272 47.4699 284.714 47.0049 285.025C46.5398 285.335 45.9931 285.501 45.4338 285.501C45.0623 285.502 44.6942 285.429 44.3509 285.287C44.0075 285.145 43.6955 284.937 43.4328 284.674C43.17 284.412 42.9618 284.1 42.8199 283.757C42.678 283.413 42.6052 283.045 42.6058 282.674V282.674Z" fill="#020A4E"/>
<path d="M32.9706 282.674C32.9706 282.115 33.1364 281.568 33.4472 281.103C33.7579 280.638 34.1996 280.276 34.7163 280.062C35.2331 279.848 35.8017 279.792 36.3503 279.901C36.8988 280.01 37.4027 280.28 37.7982 280.675C38.1937 281.07 38.4631 281.574 38.5722 282.122C38.6813 282.671 38.6253 283.239 38.4113 283.756C38.1972 284.272 37.8347 284.714 37.3697 285.025C36.9047 285.335 36.3578 285.501 35.7985 285.501C35.0485 285.501 34.3292 285.203 33.7989 284.673C33.2686 284.143 32.9706 283.424 32.9706 282.674V282.674Z" fill="#020A4E"/>
<path d="M23.3401 282.674C23.3401 282.115 23.5059 281.568 23.8166 281.103C24.1274 280.638 24.5691 280.276 25.0858 280.062C25.6025 279.848 26.1712 279.792 26.7197 279.901C27.2683 280.01 27.7721 280.28 28.1676 280.675C28.5631 281.07 28.8324 281.574 28.9415 282.122C29.0506 282.671 28.9946 283.239 28.7806 283.756C28.5666 284.272 28.2041 284.714 27.739 285.025C27.274 285.335 26.7273 285.501 26.168 285.501C25.4179 285.501 24.6987 285.203 24.1684 284.673C23.638 284.143 23.3401 283.424 23.3401 282.674V282.674Z" fill="#020A4E"/>
<path d="M13.7095 282.674C13.7095 282.115 13.8754 281.568 14.1861 281.103C14.4969 280.638 14.9384 280.276 15.4552 280.062C15.9719 279.848 16.5405 279.792 17.0891 279.901C17.6377 280.01 18.1416 280.28 18.5371 280.675C18.9325 281.07 19.2019 281.574 19.311 282.122C19.4201 282.671 19.3641 283.239 19.1501 283.756C18.9361 284.272 18.5736 284.714 18.1085 285.025C17.6435 285.335 17.0968 285.501 16.5375 285.501C15.7874 285.501 15.0681 285.203 14.5377 284.673C14.0074 284.143 13.7095 283.424 13.7095 282.674Z" fill="#020A4E"/>
<path d="M4.07434 282.674C4.07435 282.115 4.24028 281.568 4.55122 281.103C4.86216 280.638 5.30417 280.276 5.82117 280.062C6.33817 279.848 6.90698 279.792 7.45567 279.902C8.00435 280.011 8.50819 280.281 8.9035 280.677C9.29881 281.072 9.56785 281.577 9.67645 282.125C9.78504 282.674 9.72837 283.243 9.51363 283.759C9.29888 284.275 8.93568 284.717 8.47003 285.027C8.00437 285.337 7.45711 285.502 6.8976 285.501C6.52645 285.501 6.15895 285.428 5.81611 285.286C5.47327 285.144 5.16192 284.935 4.89969 284.673C4.63746 284.41 4.4296 284.098 4.28799 283.755C4.14638 283.412 4.07374 283.045 4.07434 282.674Z" fill="#020A4E"/>
<path d="M138.921 292.399C138.921 291.839 139.087 291.293 139.397 290.828C139.708 290.363 140.15 290.001 140.667 289.787C141.183 289.573 141.752 289.517 142.301 289.626C142.849 289.735 143.353 290.004 143.748 290.4C144.144 290.795 144.413 291.299 144.522 291.847C144.632 292.395 144.575 292.964 144.361 293.48C144.147 293.997 143.785 294.439 143.32 294.749C142.855 295.06 142.308 295.226 141.749 295.226C140.999 295.226 140.28 294.928 139.749 294.398C139.219 293.867 138.921 293.148 138.921 292.399Z" fill="#020A4E"/>
<path d="M129.29 292.399C129.29 291.839 129.456 291.293 129.767 290.828C130.078 290.363 130.519 290.001 131.036 289.787C131.553 289.573 132.121 289.517 132.67 289.626C133.218 289.735 133.722 290.004 134.118 290.4C134.513 290.795 134.783 291.299 134.892 291.847C135.001 292.395 134.945 292.964 134.731 293.48C134.517 293.997 134.154 294.439 133.689 294.749C133.224 295.06 132.677 295.226 132.118 295.226C131.368 295.226 130.649 294.928 130.119 294.398C129.588 293.867 129.29 293.148 129.29 292.399Z" fill="#020A4E"/>
<path d="M119.678 292.399C119.678 291.839 119.844 291.293 120.155 290.828C120.465 290.363 120.907 290.001 121.424 289.787C121.941 289.573 122.509 289.517 123.058 289.626C123.606 289.735 124.11 290.004 124.506 290.4C124.901 290.795 125.171 291.299 125.28 291.847C125.389 292.395 125.333 292.964 125.119 293.48C124.905 293.997 124.542 294.439 124.077 294.749C123.612 295.06 123.065 295.226 122.506 295.226C121.756 295.226 121.037 294.928 120.506 294.398C119.976 293.867 119.678 293.148 119.678 292.399Z" fill="#020A4E"/>
<path d="M110.006 292.399C110.006 291.839 110.172 291.293 110.483 290.828C110.794 290.363 111.235 290.001 111.752 289.787C112.269 289.573 112.837 289.517 113.386 289.626C113.934 289.735 114.438 290.004 114.834 290.4C115.229 290.795 115.499 291.299 115.608 291.847C115.717 292.395 115.661 292.964 115.447 293.48C115.233 293.997 114.87 294.439 114.405 294.749C113.94 295.06 113.393 295.226 112.834 295.226C112.084 295.226 111.365 294.928 110.834 294.398C110.304 293.867 110.006 293.148 110.006 292.399Z" fill="#020A4E"/>
<path d="M100.394 292.399C100.394 291.839 100.56 291.293 100.871 290.828C101.181 290.363 101.623 290.001 102.14 289.787C102.656 289.573 103.225 289.517 103.774 289.626C104.322 289.735 104.826 290.004 105.222 290.4C105.617 290.795 105.886 291.299 105.995 291.847C106.105 292.395 106.049 292.964 105.835 293.48C105.621 293.997 105.258 294.439 104.793 294.749C104.328 295.06 103.781 295.226 103.222 295.226C102.472 295.226 101.753 294.928 101.222 294.398C100.692 293.867 100.394 293.148 100.394 292.399Z" fill="#020A4E"/>
<path d="M90.7633 292.399C90.7633 291.839 90.9292 291.293 91.24 290.828C91.5507 290.363 91.9923 290.001 92.509 289.787C93.0257 289.573 93.5944 289.517 94.1429 289.626C94.6915 289.735 95.1954 290.004 95.5909 290.4C95.9864 290.795 96.2557 291.299 96.3648 291.847C96.474 292.395 96.418 292.964 96.2039 293.48C95.9899 293.997 95.6274 294.439 95.1624 294.749C94.6973 295.06 94.1506 295.226 93.5913 295.226C92.8413 295.226 92.1219 294.928 91.5916 294.398C91.0612 293.867 90.7633 293.148 90.7633 292.399Z" fill="#020A4E"/>
<path d="M81.1329 292.399C81.1329 291.839 81.2987 291.293 81.6095 290.828C81.9202 290.363 82.3619 290.001 82.8786 289.787C83.3954 289.573 83.964 289.517 84.5126 289.626C85.0611 289.735 85.565 290.004 85.9605 290.4C86.356 290.795 86.6252 291.299 86.7344 291.847C86.8435 292.395 86.7875 292.964 86.5735 293.48C86.3594 293.997 85.9969 294.439 85.5319 294.749C85.0668 295.06 84.5201 295.226 83.9608 295.226C83.2108 295.226 82.4915 294.928 81.9612 294.398C81.4309 293.867 81.1329 293.148 81.1329 292.399V292.399Z" fill="#020A4E"/>
<path d="M71.4976 292.399C71.4976 291.839 71.6635 291.293 71.9742 290.828C72.2849 290.363 72.7266 290.001 73.2434 289.787C73.7601 289.573 74.3286 289.517 74.8772 289.626C75.4258 289.735 75.9297 290.004 76.3251 290.4C76.7206 290.795 76.99 291.299 77.0991 291.847C77.2082 292.395 77.1522 292.964 76.9382 293.48C76.7242 293.997 76.3617 294.439 75.8966 294.749C75.4316 295.06 74.8848 295.226 74.3255 295.226C73.5755 295.226 72.8563 294.928 72.3259 294.398C71.7956 293.867 71.4976 293.148 71.4976 292.399Z" fill="#020A4E"/>
<path d="M61.8671 292.399C61.8671 291.839 62.033 291.293 62.3437 290.828C62.6545 290.363 63.096 290.001 63.6128 289.787C64.1295 289.573 64.6981 289.517 65.2467 289.626C65.7953 289.735 66.2992 290.004 66.6946 290.4C67.0901 290.795 67.3595 291.299 67.4686 291.847C67.5777 292.395 67.5217 292.964 67.3077 293.48C67.0937 293.997 66.7312 294.439 66.2661 294.749C65.8011 295.06 65.2544 295.226 64.695 295.226C63.945 295.226 63.2257 294.928 62.6953 294.398C62.165 293.867 61.8671 293.148 61.8671 292.399V292.399Z" fill="#020A4E"/>
<path d="M52.2366 292.399C52.2366 291.839 52.4024 291.293 52.7131 290.828C53.0238 290.363 53.4655 290.001 53.9823 289.787C54.499 289.573 55.0676 289.517 55.6162 289.626C56.1648 289.735 56.6686 290.004 57.064 290.4C57.4595 290.795 57.7289 291.299 57.838 291.847C57.9471 292.395 57.8911 292.964 57.6771 293.48C57.4631 293.997 57.1006 294.439 56.6355 294.749C56.1705 295.06 55.6238 295.226 55.0644 295.226C54.3144 295.226 53.5952 294.928 53.0648 294.398C52.5345 293.867 52.2366 293.148 52.2366 292.399V292.399Z" fill="#020A4E"/>
<path d="M42.6058 292.399C42.6058 291.839 42.7718 291.293 43.0825 290.828C43.3932 290.363 43.8349 290.001 44.3517 289.787C44.8684 289.573 45.4369 289.517 45.9855 289.626C46.534 289.735 47.0379 290.004 47.4334 290.4C47.8289 290.795 48.0983 291.299 48.2074 291.847C48.3165 292.395 48.2605 292.964 48.0465 293.48C47.8324 293.997 47.4699 294.439 47.0049 294.749C46.5398 295.06 45.9931 295.226 45.4338 295.226C45.0623 295.226 44.6942 295.153 44.3509 295.012C44.0075 294.87 43.6955 294.662 43.4328 294.399C43.17 294.136 42.9618 293.824 42.8199 293.481C42.678 293.138 42.6052 292.77 42.6058 292.399V292.399Z" fill="#020A4E"/>
<path d="M32.9706 292.399C32.9706 291.839 33.1364 291.293 33.4472 290.828C33.7579 290.363 34.1996 290.001 34.7163 289.787C35.2331 289.573 35.8017 289.517 36.3503 289.626C36.8988 289.735 37.4027 290.004 37.7982 290.4C38.1937 290.795 38.4631 291.299 38.5722 291.847C38.6813 292.395 38.6253 292.964 38.4113 293.48C38.1972 293.997 37.8347 294.439 37.3697 294.749C36.9047 295.06 36.3578 295.226 35.7985 295.226C35.0485 295.226 34.3292 294.928 33.7989 294.398C33.2686 293.867 32.9706 293.148 32.9706 292.399V292.399Z" fill="#020A4E"/>
<path d="M23.3401 292.399C23.3401 291.839 23.5059 291.293 23.8166 290.828C24.1274 290.363 24.5691 290.001 25.0858 289.787C25.6025 289.573 26.1712 289.517 26.7197 289.626C27.2683 289.735 27.7721 290.004 28.1676 290.4C28.5631 290.795 28.8324 291.299 28.9415 291.847C29.0506 292.395 28.9946 292.964 28.7806 293.48C28.5666 293.997 28.2041 294.439 27.739 294.749C27.274 295.06 26.7273 295.226 26.168 295.226C25.4179 295.226 24.6987 294.928 24.1684 294.398C23.638 293.867 23.3401 293.148 23.3401 292.399V292.399Z" fill="#020A4E"/>
<path d="M13.7095 292.399C13.7095 291.839 13.8754 291.293 14.1861 290.828C14.4969 290.363 14.9384 290.001 15.4552 289.787C15.9719 289.573 16.5405 289.517 17.0891 289.626C17.6377 289.735 18.1416 290.004 18.5371 290.4C18.9325 290.795 19.2019 291.299 19.311 291.847C19.4201 292.395 19.3641 292.964 19.1501 293.48C18.9361 293.997 18.5736 294.439 18.1085 294.749C17.6435 295.06 17.0968 295.226 16.5375 295.226C15.7874 295.226 15.0681 294.928 14.5377 294.398C14.0074 293.867 13.7095 293.148 13.7095 292.399Z" fill="#020A4E"/>
<path d="M4.07434 292.399C4.07435 291.839 4.24028 291.292 4.55122 290.827C4.86216 290.362 5.30417 290 5.82117 289.786C6.33817 289.572 6.90698 289.517 7.45567 289.626C8.00435 289.736 8.50819 290.005 8.9035 290.401C9.29881 290.797 9.56785 291.301 9.67645 291.85C9.78504 292.399 9.72837 292.967 9.51363 293.484C9.29888 294 8.93568 294.441 8.47003 294.751C8.00437 295.061 7.45711 295.226 6.8976 295.226C6.52645 295.226 6.15895 295.152 5.81611 295.01C5.47327 294.868 5.16192 294.66 4.89969 294.397C4.63746 294.135 4.4296 293.823 4.28799 293.48C4.14638 293.137 4.07374 292.77 4.07434 292.399Z" fill="#020A4E"/>
<path d="M81.1329 302.123C81.1329 301.564 81.2987 301.017 81.6095 300.553C81.9202 300.088 82.3619 299.725 82.8786 299.511C83.3954 299.297 83.964 299.241 84.5126 299.35C85.0611 299.46 85.565 299.729 85.9605 300.124C86.356 300.52 86.6252 301.023 86.7344 301.572C86.8435 302.12 86.7875 302.688 86.5735 303.205C86.3594 303.722 85.9969 304.163 85.5319 304.474C85.0668 304.784 84.5201 304.95 83.9608 304.95C83.2108 304.95 82.4915 304.652 81.9612 304.122C81.4309 303.592 81.1329 302.873 81.1329 302.123V302.123Z" fill="#020A4E"/>
<path d="M74.3255 299.296C75.8874 299.296 77.1534 300.562 77.1534 302.123C77.1534 303.684 75.8874 304.95 74.3255 304.95C72.7637 304.95 71.4976 303.684 71.4976 302.123C71.4976 300.562 72.7637 299.296 74.3255 299.296Z" fill="#020A4E"/>
</g>
</g>
</svg>
