<svg width="32" height="32" viewBox="0 0 32 32" fill="none" xmlns="http://www.w3.org/2000/svg">
<path d="M7.25 9.9375C7.25 9.42969 7.64062 9 8.1875 9H23.8125C24.3203 9 24.75 9.42969 24.75 9.9375C24.75 10.4844 24.3203 10.875 23.8125 10.875H8.1875C7.64062 10.875 7.25 10.4844 7.25 9.9375ZM7.25 16.1875C7.25 15.6797 7.64062 15.25 8.1875 15.25H23.8125C24.3203 15.25 24.75 15.6797 24.75 16.1875C24.75 16.7344 24.3203 17.125 23.8125 17.125H8.1875C7.64062 17.125 7.25 16.7344 7.25 16.1875ZM23.8125 23.375H8.1875C7.64062 23.375 7.25 22.9844 7.25 22.4375C7.25 21.9297 7.64062 21.5 8.1875 21.5H23.8125C24.3203 21.5 24.75 21.9297 24.75 22.4375C24.75 22.9844 24.3203 23.375 23.8125 23.375Z" fill="#D00561"/>
</svg>
