<svg width="24" height="24" viewBox="0 0 24 24" fill="none" xmlns="http://www.w3.org/2000/svg">
<path d="M11.0625 7.1875C11.0625 6.67969 11.4531 6.25 12 6.25C12.5078 6.25 12.9375 6.67969 12.9375 7.1875V12.0312L16.2578 14.2188C16.6875 14.5312 16.8047 15.1172 16.4922 15.5469C16.2188 15.9766 15.6328 16.0938 15.2031 15.7812L11.4531 13.2812C11.2188 13.125 11.0625 12.8125 11.0625 12.5V7.1875ZM12 2.5C17.5078 2.5 22 6.99219 22 12.5C22 18.0469 17.5078 22.5 12 22.5C6.45312 22.5 2 18.0469 2 12.5C2 6.99219 6.45312 2.5 12 2.5ZM3.875 12.5C3.875 16.9922 7.50781 20.625 12 20.625C16.4531 20.625 20.125 16.9922 20.125 12.5C20.125 8.04688 16.4531 4.375 12 4.375C7.50781 4.375 3.875 8.04688 3.875 12.5Z" fill="#020A4E"/>
</svg>
