<svg width="25" height="16" viewBox="0 0 25 16" fill="none" xmlns="http://www.w3.org/2000/svg">
<path d="M8.75 0.828125C8.98438 1.0625 9.125 1.34375 9.125 1.625C9.125 1.95312 8.98438 2.23438 8.75 2.42188L4.29688 6.875H23.375C23.9844 6.875 24.5 7.39062 24.5 8C24.5 8.65625 23.9844 9.125 23.375 9.125H4.29688L8.75 13.625C9.21875 14.0469 9.21875 14.75 8.75 15.1719C8.32812 15.6406 7.625 15.6406 7.20312 15.1719L0.828125 8.79688C0.359375 8.375 0.359375 7.67188 0.828125 7.25L7.20312 0.875C7.625 0.40625 8.32812 0.40625 8.75 0.828125Z" fill="#FDB6D7"/>
</svg>
