<svg width="24" height="24" viewBox="0 0 24 24" fill="none" xmlns="http://www.w3.org/2000/svg">
<path d="M15.125 10C15.125 11.7578 13.7188 13.125 12 13.125C10.2422 13.125 8.875 11.7578 8.875 10C8.875 8.28125 10.2422 6.875 12 6.875C13.7188 6.875 15.125 8.28125 15.125 10ZM12 8.75C11.2969 8.75 10.75 9.33594 10.75 10C10.75 10.7031 11.2969 11.25 12 11.25C12.6641 11.25 13.25 10.7031 13.25 10C13.25 9.33594 12.6641 8.75 12 8.75ZM19.5 10C19.5 13.4375 14.9297 19.4922 12.8984 22.0312C12.4297 22.6172 11.5312 22.6172 11.0625 22.0312C9.03125 19.4922 4.5 13.4375 4.5 10C4.5 5.85938 7.82031 2.5 12 2.5C16.1406 2.5 19.5 5.85938 19.5 10ZM12 4.375C8.875 4.375 6.375 6.91406 6.375 10C6.375 10.5078 6.53125 11.25 6.96094 12.2656C7.35156 13.2031 7.9375 14.2969 8.60156 15.3906C9.73438 17.1875 11.0234 18.9062 12 20.1562C12.9375 18.9062 14.2266 17.1875 15.3594 15.3906C16.0234 14.2969 16.6094 13.2031 17 12.2656C17.4297 11.25 17.625 10.5078 17.625 10C17.625 6.91406 15.0859 4.375 12 4.375Z" fill="#020A4E"/>
</svg>
