<svg width="25" height="16" viewBox="0 0 25 16" fill="none" xmlns="http://www.w3.org/2000/svg">
<path d="M16.25 15.1719C16.0156 14.9375 15.875 14.6562 15.875 14.375C15.875 14.0469 16.0156 13.7656 16.25 13.5781L20.7031 9.125L1.625 9.125C1.01563 9.125 0.500001 8.60937 0.500001 8C0.500001 7.34375 1.01563 6.875 1.625 6.875L20.7031 6.875L16.25 2.375C15.7813 1.95312 15.7813 1.25 16.25 0.828124C16.6719 0.359374 17.375 0.359374 17.7969 0.828124L24.1719 7.20312C24.6406 7.625 24.6406 8.32813 24.1719 8.75L17.7969 15.125C17.375 15.5937 16.6719 15.5937 16.25 15.1719Z" fill="#FDB6D7"/>
</svg>
