<svg width="15" height="14" viewBox="0 0 15 14" fill="none" xmlns="http://www.w3.org/2000/svg">
<path d="M9.67383 4.45898L13.3047 4.99219C13.6094 5.04297 13.8633 5.24609 13.9648 5.55078C14.0664 5.83008 13.9902 6.16016 13.7617 6.36328L11.1211 8.97852L11.7559 12.6855C11.8066 12.9902 11.6797 13.2949 11.4258 13.4727C11.1719 13.6758 10.8418 13.6758 10.5625 13.5488L7.3125 11.7969L4.03711 13.5488C3.7832 13.6758 3.42773 13.6758 3.19922 13.4727C2.94531 13.2949 2.81836 12.9902 2.86914 12.6855L3.47852 8.97852L0.837891 6.36328C0.609375 6.16016 0.533203 5.83008 0.634766 5.55078C0.736328 5.24609 0.990234 5.04297 1.29492 4.99219L4.95117 4.45898L6.57617 1.08203C6.70312 0.802734 6.98242 0.625 7.3125 0.625C7.61719 0.625 7.89648 0.802734 8.02344 1.08203L9.67383 4.45898Z" fill="#FFB800"/>
</svg>
