<svg width="24" height="25" viewBox="0 0 24 25" fill="none" xmlns="http://www.w3.org/2000/svg">
<path d="M14.543 9.07129L18.4531 9.64551C18.7812 9.7002 19.0547 9.91895 19.1641 10.2471C19.2734 10.5479 19.1914 10.9033 18.9453 11.1221L16.1016 13.9385L16.7852 17.9307C16.8398 18.2588 16.7031 18.5869 16.4297 18.7783C16.1562 18.9971 15.8008 18.9971 15.5 18.8604L12 16.9736L8.47266 18.8604C8.19922 18.9971 7.81641 18.9971 7.57031 18.7783C7.29688 18.5869 7.16016 18.2588 7.21484 17.9307L7.87109 13.9385L5.02734 11.1221C4.78125 10.9033 4.69922 10.5479 4.80859 10.2471C4.91797 9.91895 5.19141 9.7002 5.51953 9.64551L9.45703 9.07129L11.207 5.43457C11.3438 5.13379 11.6445 4.94238 12 4.94238C12.3281 4.94238 12.6289 5.13379 12.7656 5.43457L14.543 9.07129Z" fill="#FFB800"/>
</svg>
